<mxfile host="app.diagrams.net" agent="Mozilla/5.0 (X11; Linux x86_64; rv:126.0) Gecko/20100101 Firefox/126.0" version="24.7.12">
  <diagram id="C5RBs43oDa-KdzZeNtuy" name="Page-1">
    <mxGraphModel dx="2514" dy="3205" grid="1" gridSize="10" guides="1" tooltips="1" connect="1" arrows="1" fold="1" page="1" pageScale="1" pageWidth="827" pageHeight="1169" math="0" shadow="0">
      <root>
        <mxCell id="WIyWlLk6GJQsqaUBKTNV-0" />
        <mxCell id="WIyWlLk6GJQsqaUBKTNV-1" parent="WIyWlLk6GJQsqaUBKTNV-0" />
        <mxCell id="zkfFHV4jXpPFQw0GAbJ--0" value="SceneManager&#xa;" style="swimlane;fontStyle=0;align=center;verticalAlign=top;childLayout=stackLayout;horizontal=1;startSize=40;horizontalStack=0;resizeParent=1;resizeLast=0;collapsible=1;marginBottom=0;rounded=0;shadow=0;strokeWidth=1;" parent="WIyWlLk6GJQsqaUBKTNV-1" vertex="1">
          <mxGeometry x="-20" y="-1090" width="190" height="210" as="geometry">
            <mxRectangle x="30" y="-990" width="160" height="26" as="alternateBounds" />
          </mxGeometry>
        </mxCell>
        <mxCell id="5rygWhRONN88SNYjt8ui-10" value="-m_scenes : list&lt;Scene&gt;" style="text;align=left;verticalAlign=top;spacingLeft=4;spacingRight=4;overflow=hidden;rotatable=0;points=[[0,0.5],[1,0.5]];portConstraint=eastwest;" parent="zkfFHV4jXpPFQw0GAbJ--0" vertex="1">
          <mxGeometry y="40" width="190" height="26" as="geometry" />
        </mxCell>
        <mxCell id="zkfFHV4jXpPFQw0GAbJ--4" value="" style="line;html=1;strokeWidth=1;align=left;verticalAlign=middle;spacingTop=-1;spacingLeft=3;spacingRight=3;rotatable=0;labelPosition=right;points=[];portConstraint=eastwest;" parent="zkfFHV4jXpPFQw0GAbJ--0" vertex="1">
          <mxGeometry y="66" width="190" height="8" as="geometry" />
        </mxCell>
        <mxCell id="5rygWhRONN88SNYjt8ui-3" value="+pushScene(Scene) : void" style="text;align=left;verticalAlign=top;spacingLeft=4;spacingRight=4;overflow=hidden;rotatable=0;points=[[0,0.5],[1,0.5]];portConstraint=eastwest;" parent="zkfFHV4jXpPFQw0GAbJ--0" vertex="1">
          <mxGeometry y="74" width="190" height="26" as="geometry" />
        </mxCell>
        <mxCell id="5rygWhRONN88SNYjt8ui-4" value="+popScene() : void" style="text;align=left;verticalAlign=top;spacingLeft=4;spacingRight=4;overflow=hidden;rotatable=0;points=[[0,0.5],[1,0.5]];portConstraint=eastwest;" parent="zkfFHV4jXpPFQw0GAbJ--0" vertex="1">
          <mxGeometry y="100" width="190" height="26" as="geometry" />
        </mxCell>
        <mxCell id="5rygWhRONN88SNYjt8ui-150" value="+back : Scene" style="text;align=left;verticalAlign=top;spacingLeft=4;spacingRight=4;overflow=hidden;rotatable=0;points=[[0,0.5],[1,0.5]];portConstraint=eastwest;" parent="zkfFHV4jXpPFQw0GAbJ--0" vertex="1">
          <mxGeometry y="126" width="190" height="26" as="geometry" />
        </mxCell>
        <mxCell id="5rygWhRONN88SNYjt8ui-6" value="+update(double) : void" style="text;align=left;verticalAlign=top;spacingLeft=4;spacingRight=4;overflow=hidden;rotatable=0;points=[[0,0.5],[1,0.5]];portConstraint=eastwest;" parent="zkfFHV4jXpPFQw0GAbJ--0" vertex="1">
          <mxGeometry y="152" width="190" height="26" as="geometry" />
        </mxCell>
        <mxCell id="5rygWhRONN88SNYjt8ui-5" value="+draw() : bool" style="text;align=left;verticalAlign=top;spacingLeft=4;spacingRight=4;overflow=hidden;rotatable=0;points=[[0,0.5],[1,0.5]];portConstraint=eastwest;" parent="zkfFHV4jXpPFQw0GAbJ--0" vertex="1">
          <mxGeometry y="178" width="190" height="26" as="geometry" />
        </mxCell>
        <mxCell id="5rygWhRONN88SNYjt8ui-62" value="Scene" style="swimlane;fontStyle=0;align=center;verticalAlign=top;childLayout=stackLayout;horizontal=1;startSize=40;horizontalStack=0;resizeParent=1;resizeLast=0;collapsible=1;marginBottom=0;rounded=0;shadow=0;strokeWidth=1;" parent="WIyWlLk6GJQsqaUBKTNV-1" vertex="1">
          <mxGeometry x="-70" y="-600" width="190" height="180" as="geometry">
            <mxRectangle x="220" y="70" width="160" height="26" as="alternateBounds" />
          </mxGeometry>
        </mxCell>
        <mxCell id="5rygWhRONN88SNYjt8ui-63" value="-m_objects : list&lt;IGameObject&gt;" style="text;align=left;verticalAlign=top;spacingLeft=4;spacingRight=4;overflow=hidden;rotatable=0;points=[[0,0.5],[1,0.5]];portConstraint=eastwest;" parent="5rygWhRONN88SNYjt8ui-62" vertex="1">
          <mxGeometry y="40" width="190" height="26" as="geometry" />
        </mxCell>
        <mxCell id="5rygWhRONN88SNYjt8ui-64" value="" style="line;html=1;strokeWidth=1;align=left;verticalAlign=middle;spacingTop=-1;spacingLeft=3;spacingRight=3;rotatable=0;labelPosition=right;points=[];portConstraint=eastwest;" parent="5rygWhRONN88SNYjt8ui-62" vertex="1">
          <mxGeometry y="66" width="190" height="8" as="geometry" />
        </mxCell>
        <mxCell id="5rygWhRONN88SNYjt8ui-65" value="+pushObject(IGameObject) : void" style="text;align=left;verticalAlign=top;spacingLeft=4;spacingRight=4;overflow=hidden;rotatable=0;points=[[0,0.5],[1,0.5]];portConstraint=eastwest;" parent="5rygWhRONN88SNYjt8ui-62" vertex="1">
          <mxGeometry y="74" width="190" height="26" as="geometry" />
        </mxCell>
        <mxCell id="5rygWhRONN88SNYjt8ui-66" value="+clear() : void" style="text;align=left;verticalAlign=top;spacingLeft=4;spacingRight=4;overflow=hidden;rotatable=0;points=[[0,0.5],[1,0.5]];portConstraint=eastwest;" parent="5rygWhRONN88SNYjt8ui-62" vertex="1">
          <mxGeometry y="100" width="190" height="26" as="geometry" />
        </mxCell>
        <mxCell id="muvpBoI5yuBOFcIrjpcm-28" value="+begin() : iterator" style="text;align=left;verticalAlign=top;spacingLeft=4;spacingRight=4;overflow=hidden;rotatable=0;points=[[0,0.5],[1,0.5]];portConstraint=eastwest;" parent="5rygWhRONN88SNYjt8ui-62" vertex="1">
          <mxGeometry y="126" width="190" height="26" as="geometry" />
        </mxCell>
        <mxCell id="muvpBoI5yuBOFcIrjpcm-29" value="+end() : iterator" style="text;align=left;verticalAlign=top;spacingLeft=4;spacingRight=4;overflow=hidden;rotatable=0;points=[[0,0.5],[1,0.5]];portConstraint=eastwest;" parent="5rygWhRONN88SNYjt8ui-62" vertex="1">
          <mxGeometry y="152" width="190" height="26" as="geometry" />
        </mxCell>
        <mxCell id="5rygWhRONN88SNYjt8ui-72" value="&lt;&lt;interface&gt;&gt;&#xa;IGameObject&#xa;" style="swimlane;fontStyle=2;align=center;verticalAlign=top;childLayout=stackLayout;horizontal=1;startSize=40;horizontalStack=0;resizeParent=1;resizeLast=0;collapsible=1;marginBottom=0;rounded=0;shadow=0;strokeWidth=1;" parent="WIyWlLk6GJQsqaUBKTNV-1" vertex="1">
          <mxGeometry x="210" y="-830" width="180" height="178" as="geometry">
            <mxRectangle x="220" y="70" width="160" height="26" as="alternateBounds" />
          </mxGeometry>
        </mxCell>
        <mxCell id="b3c_SwX3CGdLqoRGaVpB-6" value="-m_node : Node" style="text;align=left;verticalAlign=top;spacingLeft=4;spacingRight=4;overflow=hidden;rotatable=0;points=[[0,0.5],[1,0.5]];portConstraint=eastwest;" parent="5rygWhRONN88SNYjt8ui-72" vertex="1">
          <mxGeometry y="40" width="180" height="26" as="geometry" />
        </mxCell>
        <mxCell id="5rygWhRONN88SNYjt8ui-74" value="" style="line;html=1;strokeWidth=1;align=left;verticalAlign=middle;spacingTop=-1;spacingLeft=3;spacingRight=3;rotatable=0;labelPosition=right;points=[];portConstraint=eastwest;" parent="5rygWhRONN88SNYjt8ui-72" vertex="1">
          <mxGeometry y="66" width="180" height="8" as="geometry" />
        </mxCell>
        <mxCell id="b3c_SwX3CGdLqoRGaVpB-7" value="+getLayer by m_node" style="text;align=left;verticalAlign=top;spacingLeft=4;spacingRight=4;overflow=hidden;rotatable=0;points=[[0,0.5],[1,0.5]];portConstraint=eastwest;" parent="5rygWhRONN88SNYjt8ui-72" vertex="1">
          <mxGeometry y="74" width="180" height="26" as="geometry" />
        </mxCell>
        <mxCell id="5rygWhRONN88SNYjt8ui-75" value="+update(double) : void" style="text;align=left;verticalAlign=top;spacingLeft=4;spacingRight=4;overflow=hidden;rotatable=0;points=[[0,0.5],[1,0.5]];portConstraint=eastwest;" parent="5rygWhRONN88SNYjt8ui-72" vertex="1">
          <mxGeometry y="100" width="180" height="26" as="geometry" />
        </mxCell>
        <mxCell id="5rygWhRONN88SNYjt8ui-76" value="+draw() : void" style="text;align=left;verticalAlign=top;spacingLeft=4;spacingRight=4;overflow=hidden;rotatable=0;points=[[0,0.5],[1,0.5]];portConstraint=eastwest;" parent="5rygWhRONN88SNYjt8ui-72" vertex="1">
          <mxGeometry y="126" width="180" height="26" as="geometry" />
        </mxCell>
        <mxCell id="Yk1TS9U53KZV7oq_ULZb-18" value="+clone() : IGameObject" style="text;align=left;verticalAlign=top;spacingLeft=4;spacingRight=4;overflow=hidden;rotatable=0;points=[[0,0.5],[1,0.5]];portConstraint=eastwest;" vertex="1" parent="5rygWhRONN88SNYjt8ui-72">
          <mxGeometry y="152" width="180" height="26" as="geometry" />
        </mxCell>
        <mxCell id="5rygWhRONN88SNYjt8ui-113" value="Button" style="swimlane;fontStyle=0;align=center;verticalAlign=top;childLayout=stackLayout;horizontal=1;startSize=40;horizontalStack=0;resizeParent=1;resizeLast=0;collapsible=1;marginBottom=0;rounded=0;shadow=0;strokeWidth=1;" parent="WIyWlLk6GJQsqaUBKTNV-1" vertex="1">
          <mxGeometry x="151" y="-599" width="239" height="230" as="geometry">
            <mxRectangle x="220" y="70" width="160" height="26" as="alternateBounds" />
          </mxGeometry>
        </mxCell>
        <mxCell id="5rygWhRONN88SNYjt8ui-114" value="-m_body : Rectange " style="text;align=left;verticalAlign=top;spacingLeft=4;spacingRight=4;overflow=hidden;rotatable=0;points=[[0,0.5],[1,0.5]];portConstraint=eastwest;" parent="5rygWhRONN88SNYjt8ui-113" vertex="1">
          <mxGeometry y="40" width="239" height="26" as="geometry" />
        </mxCell>
        <mxCell id="5rygWhRONN88SNYjt8ui-124" value="-m_color : Color" style="text;align=left;verticalAlign=top;spacingLeft=4;spacingRight=4;overflow=hidden;rotatable=0;points=[[0,0.5],[1,0.5]];portConstraint=eastwest;" parent="5rygWhRONN88SNYjt8ui-113" vertex="1">
          <mxGeometry y="66" width="239" height="26" as="geometry" />
        </mxCell>
        <mxCell id="5rygWhRONN88SNYjt8ui-119" value="-m_onClick : function" style="text;align=left;verticalAlign=top;spacingLeft=4;spacingRight=4;overflow=hidden;rotatable=0;points=[[0,0.5],[1,0.5]];portConstraint=eastwest;" parent="5rygWhRONN88SNYjt8ui-113" vertex="1">
          <mxGeometry y="92" width="239" height="26" as="geometry" />
        </mxCell>
        <mxCell id="5rygWhRONN88SNYjt8ui-115" value="" style="line;html=1;strokeWidth=1;align=left;verticalAlign=middle;spacingTop=-1;spacingLeft=3;spacingRight=3;rotatable=0;labelPosition=right;points=[];portConstraint=eastwest;" parent="5rygWhRONN88SNYjt8ui-113" vertex="1">
          <mxGeometry y="118" width="239" height="8" as="geometry" />
        </mxCell>
        <mxCell id="5rygWhRONN88SNYjt8ui-116" value="+isPressed() : bool " style="text;align=left;verticalAlign=top;spacingLeft=4;spacingRight=4;overflow=hidden;rotatable=0;points=[[0,0.5],[1,0.5]];portConstraint=eastwest;" parent="5rygWhRONN88SNYjt8ui-113" vertex="1">
          <mxGeometry y="126" width="239" height="26" as="geometry" />
        </mxCell>
        <mxCell id="Yk1TS9U53KZV7oq_ULZb-10" value="+getMouseCollision(CameraObject) : bool " style="text;align=left;verticalAlign=top;spacingLeft=4;spacingRight=4;overflow=hidden;rotatable=0;points=[[0,0.5],[1,0.5]];portConstraint=eastwest;" vertex="1" parent="5rygWhRONN88SNYjt8ui-113">
          <mxGeometry y="152" width="239" height="26" as="geometry" />
        </mxCell>
        <mxCell id="5rygWhRONN88SNYjt8ui-126" value="+setColor(Color) : void" style="text;align=left;verticalAlign=top;spacingLeft=4;spacingRight=4;overflow=hidden;rotatable=0;points=[[0,0.5],[1,0.5]];portConstraint=eastwest;" parent="5rygWhRONN88SNYjt8ui-113" vertex="1">
          <mxGeometry y="178" width="239" height="26" as="geometry" />
        </mxCell>
        <mxCell id="5rygWhRONN88SNYjt8ui-117" value="-onClick() : void" style="text;align=left;verticalAlign=top;spacingLeft=4;spacingRight=4;overflow=hidden;rotatable=0;points=[[0,0.5],[1,0.5]];portConstraint=eastwest;" parent="5rygWhRONN88SNYjt8ui-113" vertex="1">
          <mxGeometry y="204" width="239" height="26" as="geometry" />
        </mxCell>
        <mxCell id="5rygWhRONN88SNYjt8ui-140" value="Node" style="swimlane;fontStyle=0;align=center;verticalAlign=top;childLayout=stackLayout;horizontal=1;startSize=40;horizontalStack=0;resizeParent=1;resizeLast=0;collapsible=1;marginBottom=0;rounded=0;shadow=0;strokeWidth=1;" parent="WIyWlLk6GJQsqaUBKTNV-1" vertex="1">
          <mxGeometry x="210" y="-950" width="160" height="110" as="geometry">
            <mxRectangle x="220" y="70" width="160" height="26" as="alternateBounds" />
          </mxGeometry>
        </mxCell>
        <mxCell id="5rygWhRONN88SNYjt8ui-147" value="-layer : uint_32" style="text;align=left;verticalAlign=top;spacingLeft=4;spacingRight=4;overflow=hidden;rotatable=0;points=[[0,0.5],[1,0.5]];portConstraint=eastwest;" parent="5rygWhRONN88SNYjt8ui-140" vertex="1">
          <mxGeometry y="40" width="160" height="26" as="geometry" />
        </mxCell>
        <mxCell id="5rygWhRONN88SNYjt8ui-141" value="" style="line;html=1;strokeWidth=1;align=left;verticalAlign=middle;spacingTop=-1;spacingLeft=3;spacingRight=3;rotatable=0;labelPosition=right;points=[];portConstraint=eastwest;" parent="5rygWhRONN88SNYjt8ui-140" vertex="1">
          <mxGeometry y="66" width="160" height="8" as="geometry" />
        </mxCell>
        <mxCell id="5rygWhRONN88SNYjt8ui-143" value="+getLayer() : uint_32" style="text;align=left;verticalAlign=top;spacingLeft=4;spacingRight=4;overflow=hidden;rotatable=0;points=[[0,0.5],[1,0.5]];portConstraint=eastwest;" parent="5rygWhRONN88SNYjt8ui-140" vertex="1">
          <mxGeometry y="74" width="160" height="26" as="geometry" />
        </mxCell>
        <mxCell id="iSpKXZJJslrt3K8X691c-43" style="edgeStyle=orthogonalEdgeStyle;rounded=0;orthogonalLoop=1;jettySize=auto;html=1;endArrow=none;endFill=0;endSize=6;startArrow=diamondThin;startFill=0;startSize=9;" parent="WIyWlLk6GJQsqaUBKTNV-1" source="5rygWhRONN88SNYjt8ui-162" target="5rygWhRONN88SNYjt8ui-166" edge="1">
          <mxGeometry relative="1" as="geometry">
            <Array as="points">
              <mxPoint x="420" y="-460" />
              <mxPoint x="420" y="-297" />
            </Array>
          </mxGeometry>
        </mxCell>
        <mxCell id="5rygWhRONN88SNYjt8ui-151" value="Map" style="swimlane;fontStyle=0;align=center;verticalAlign=top;childLayout=stackLayout;horizontal=1;startSize=40;horizontalStack=0;resizeParent=1;resizeLast=0;collapsible=1;marginBottom=0;rounded=0;shadow=0;strokeWidth=1;" parent="WIyWlLk6GJQsqaUBKTNV-1" vertex="1">
          <mxGeometry x="442" y="-600" width="180" height="230" as="geometry">
            <mxRectangle x="220" y="70" width="160" height="26" as="alternateBounds" />
          </mxGeometry>
        </mxCell>
        <mxCell id="5rygWhRONN88SNYjt8ui-152" value="-m_data : list&lt;MapUnit&gt;" style="text;align=left;verticalAlign=top;spacingLeft=4;spacingRight=4;overflow=hidden;rotatable=0;points=[[0,0.5],[1,0.5]];portConstraint=eastwest;" parent="5rygWhRONN88SNYjt8ui-151" vertex="1">
          <mxGeometry y="40" width="180" height="26" as="geometry" />
        </mxCell>
        <mxCell id="5rygWhRONN88SNYjt8ui-160" value="-m_width : int" style="text;align=left;verticalAlign=top;spacingLeft=4;spacingRight=4;overflow=hidden;rotatable=0;points=[[0,0.5],[1,0.5]];portConstraint=eastwest;" parent="5rygWhRONN88SNYjt8ui-151" vertex="1">
          <mxGeometry y="66" width="180" height="26" as="geometry" />
        </mxCell>
        <mxCell id="5rygWhRONN88SNYjt8ui-161" value="-m_height : int" style="text;align=left;verticalAlign=top;spacingLeft=4;spacingRight=4;overflow=hidden;rotatable=0;points=[[0,0.5],[1,0.5]];portConstraint=eastwest;" parent="5rygWhRONN88SNYjt8ui-151" vertex="1">
          <mxGeometry y="92" width="180" height="26" as="geometry" />
        </mxCell>
        <mxCell id="5rygWhRONN88SNYjt8ui-162" value="-m_tiler : Tiler" style="text;align=left;verticalAlign=top;spacingLeft=4;spacingRight=4;overflow=hidden;rotatable=0;points=[[0,0.5],[1,0.5]];portConstraint=eastwest;" parent="5rygWhRONN88SNYjt8ui-151" vertex="1">
          <mxGeometry y="118" width="180" height="26" as="geometry" />
        </mxCell>
        <mxCell id="5rygWhRONN88SNYjt8ui-153" value="" style="line;html=1;strokeWidth=1;align=left;verticalAlign=middle;spacingTop=-1;spacingLeft=3;spacingRight=3;rotatable=0;labelPosition=right;points=[];portConstraint=eastwest;" parent="5rygWhRONN88SNYjt8ui-151" vertex="1">
          <mxGeometry y="144" width="180" height="8" as="geometry" />
        </mxCell>
        <mxCell id="5rygWhRONN88SNYjt8ui-154" value="+attachTiler(Tiler) : void" style="text;align=left;verticalAlign=top;spacingLeft=4;spacingRight=4;overflow=hidden;rotatable=0;points=[[0,0.5],[1,0.5]];portConstraint=eastwest;" parent="5rygWhRONN88SNYjt8ui-151" vertex="1">
          <mxGeometry y="152" width="180" height="26" as="geometry" />
        </mxCell>
        <mxCell id="5rygWhRONN88SNYjt8ui-158" value="+loadFromFile(str) : Map" style="text;align=left;verticalAlign=top;spacingLeft=4;spacingRight=4;overflow=hidden;rotatable=0;points=[[0,0.5],[1,0.5]];portConstraint=eastwest;" parent="5rygWhRONN88SNYjt8ui-151" vertex="1">
          <mxGeometry y="178" width="180" height="26" as="geometry" />
        </mxCell>
        <mxCell id="5rygWhRONN88SNYjt8ui-171" value="-spawnCreeps() : void" style="text;align=left;verticalAlign=top;spacingLeft=4;spacingRight=4;overflow=hidden;rotatable=0;points=[[0,0.5],[1,0.5]];portConstraint=eastwest;" parent="5rygWhRONN88SNYjt8ui-151" vertex="1">
          <mxGeometry y="204" width="180" height="26" as="geometry" />
        </mxCell>
        <mxCell id="5rygWhRONN88SNYjt8ui-166" value="Tiler" style="swimlane;fontStyle=2;align=center;verticalAlign=top;childLayout=stackLayout;horizontal=1;startSize=40;horizontalStack=0;resizeParent=1;resizeLast=0;collapsible=1;marginBottom=0;rounded=0;shadow=0;strokeWidth=1;" parent="WIyWlLk6GJQsqaUBKTNV-1" vertex="1">
          <mxGeometry x="430" y="-360" width="210" height="126" as="geometry">
            <mxRectangle x="220" y="70" width="160" height="26" as="alternateBounds" />
          </mxGeometry>
        </mxCell>
        <mxCell id="5rygWhRONN88SNYjt8ui-167" value="#m_tiles : list&lt;Texture2D&gt;" style="text;align=left;verticalAlign=top;spacingLeft=4;spacingRight=4;overflow=hidden;rotatable=0;points=[[0,0.5],[1,0.5]];portConstraint=eastwest;" parent="5rygWhRONN88SNYjt8ui-166" vertex="1">
          <mxGeometry y="40" width="210" height="26" as="geometry" />
        </mxCell>
        <mxCell id="5rygWhRONN88SNYjt8ui-168" value="" style="line;html=1;strokeWidth=1;align=left;verticalAlign=middle;spacingTop=-1;spacingLeft=3;spacingRight=3;rotatable=0;labelPosition=right;points=[];portConstraint=eastwest;" parent="5rygWhRONN88SNYjt8ui-166" vertex="1">
          <mxGeometry y="66" width="210" height="8" as="geometry" />
        </mxCell>
        <mxCell id="5rygWhRONN88SNYjt8ui-169" value="+m_drawMap(Map) : void" style="text;align=left;verticalAlign=top;spacingLeft=4;spacingRight=4;overflow=hidden;rotatable=0;points=[[0,0.5],[1,0.5]];portConstraint=eastwest;" parent="5rygWhRONN88SNYjt8ui-166" vertex="1">
          <mxGeometry y="74" width="210" height="26" as="geometry" />
        </mxCell>
        <mxCell id="iSpKXZJJslrt3K8X691c-48" value="#m_getTile(Map, int, int) : Texture2D" style="text;align=left;verticalAlign=top;spacingLeft=4;spacingRight=4;overflow=hidden;rotatable=0;points=[[0,0.5],[1,0.5]];portConstraint=eastwest;" parent="5rygWhRONN88SNYjt8ui-166" vertex="1">
          <mxGeometry y="100" width="210" height="26" as="geometry" />
        </mxCell>
        <mxCell id="5rygWhRONN88SNYjt8ui-174" value="Creep" style="swimlane;fontStyle=0;align=center;verticalAlign=top;childLayout=stackLayout;horizontal=1;startSize=40;horizontalStack=0;resizeParent=1;resizeLast=0;collapsible=1;marginBottom=0;rounded=0;shadow=0;strokeWidth=1;" parent="WIyWlLk6GJQsqaUBKTNV-1" vertex="1">
          <mxGeometry x="680" y="-600" width="160" height="360" as="geometry">
            <mxRectangle x="220" y="70" width="160" height="26" as="alternateBounds" />
          </mxGeometry>
        </mxCell>
        <mxCell id="5rygWhRONN88SNYjt8ui-175" value="-m_body : Rectangle" style="text;align=left;verticalAlign=top;spacingLeft=4;spacingRight=4;overflow=hidden;rotatable=0;points=[[0,0.5],[1,0.5]];portConstraint=eastwest;" parent="5rygWhRONN88SNYjt8ui-174" vertex="1">
          <mxGeometry y="40" width="160" height="26" as="geometry" />
        </mxCell>
        <mxCell id="sOrNMbXC4IDYlmC76Fjy-10" value="-m_healthPoints : Health" style="text;align=left;verticalAlign=top;spacingLeft=4;spacingRight=4;overflow=hidden;rotatable=0;points=[[0,0.5],[1,0.5]];portConstraint=eastwest;" parent="5rygWhRONN88SNYjt8ui-174" vertex="1">
          <mxGeometry y="66" width="160" height="26" as="geometry" />
        </mxCell>
        <mxCell id="muvpBoI5yuBOFcIrjpcm-61" value="-m_enemyTag : EnemyTag" style="text;align=left;verticalAlign=top;spacingLeft=4;spacingRight=4;overflow=hidden;rotatable=0;points=[[0,0.5],[1,0.5]];portConstraint=eastwest;" parent="5rygWhRONN88SNYjt8ui-174" vertex="1">
          <mxGeometry y="92" width="160" height="26" as="geometry" />
        </mxCell>
        <mxCell id="sOrNMbXC4IDYlmC76Fjy-3" value="-m_direction : Direction" style="text;align=left;verticalAlign=top;spacingLeft=4;spacingRight=4;overflow=hidden;rotatable=0;points=[[0,0.5],[1,0.5]];portConstraint=eastwest;" parent="5rygWhRONN88SNYjt8ui-174" vertex="1">
          <mxGeometry y="118" width="160" height="26" as="geometry" />
        </mxCell>
        <mxCell id="sOrNMbXC4IDYlmC76Fjy-2" value="-m_speed : Speed" style="text;align=left;verticalAlign=top;spacingLeft=4;spacingRight=4;overflow=hidden;rotatable=0;points=[[0,0.5],[1,0.5]];portConstraint=eastwest;" parent="5rygWhRONN88SNYjt8ui-174" vertex="1">
          <mxGeometry y="144" width="160" height="26" as="geometry" />
        </mxCell>
        <mxCell id="Yk1TS9U53KZV7oq_ULZb-33" value="#m_money : Money" style="text;strokeColor=none;fillColor=none;align=left;verticalAlign=top;spacingLeft=4;spacingRight=4;overflow=hidden;rotatable=0;points=[[0,0.5],[1,0.5]];portConstraint=eastwest;whiteSpace=wrap;html=1;" vertex="1" parent="5rygWhRONN88SNYjt8ui-174">
          <mxGeometry y="170" width="160" height="26" as="geometry" />
        </mxCell>
        <mxCell id="sOrNMbXC4IDYlmC76Fjy-0" value="-m_color : Color" style="text;align=left;verticalAlign=top;spacingLeft=4;spacingRight=4;overflow=hidden;rotatable=0;points=[[0,0.5],[1,0.5]];portConstraint=eastwest;" parent="5rygWhRONN88SNYjt8ui-174" vertex="1">
          <mxGeometry y="196" width="160" height="26" as="geometry" />
        </mxCell>
        <mxCell id="sOrNMbXC4IDYlmC76Fjy-4" value="-m_path : list&lt;Vector2&gt;" style="text;align=left;verticalAlign=top;spacingLeft=4;spacingRight=4;overflow=hidden;rotatable=0;points=[[0,0.5],[1,0.5]];portConstraint=eastwest;" parent="5rygWhRONN88SNYjt8ui-174" vertex="1">
          <mxGeometry y="222" width="160" height="26" as="geometry" />
        </mxCell>
        <mxCell id="sOrNMbXC4IDYlmC76Fjy-5" value="-m_pathIterator : int" style="text;align=left;verticalAlign=top;spacingLeft=4;spacingRight=4;overflow=hidden;rotatable=0;points=[[0,0.5],[1,0.5]];portConstraint=eastwest;" parent="5rygWhRONN88SNYjt8ui-174" vertex="1">
          <mxGeometry y="248" width="160" height="26" as="geometry" />
        </mxCell>
        <mxCell id="sOrNMbXC4IDYlmC76Fjy-11" value="-s_texture : Texture2D" style="text;align=left;verticalAlign=top;spacingLeft=4;spacingRight=4;overflow=hidden;rotatable=0;points=[[0,0.5],[1,0.5]];portConstraint=eastwest;" parent="5rygWhRONN88SNYjt8ui-174" vertex="1">
          <mxGeometry y="274" width="160" height="26" as="geometry" />
        </mxCell>
        <mxCell id="5rygWhRONN88SNYjt8ui-176" value="" style="line;html=1;strokeWidth=1;align=left;verticalAlign=middle;spacingTop=-1;spacingLeft=3;spacingRight=3;rotatable=0;labelPosition=right;points=[];portConstraint=eastwest;" parent="5rygWhRONN88SNYjt8ui-174" vertex="1">
          <mxGeometry y="300" width="160" height="8" as="geometry" />
        </mxCell>
        <mxCell id="sOrNMbXC4IDYlmC76Fjy-1" value="+hit(int) : void" style="text;align=left;verticalAlign=top;spacingLeft=4;spacingRight=4;overflow=hidden;rotatable=0;points=[[0,0.5],[1,0.5]];portConstraint=eastwest;" parent="5rygWhRONN88SNYjt8ui-174" vertex="1">
          <mxGeometry y="308" width="160" height="26" as="geometry" />
        </mxCell>
        <mxCell id="57HEkyMDVmlf4uenoFg5-39" value="+getPosition() : Vector2" style="text;align=left;verticalAlign=top;spacingLeft=4;spacingRight=4;overflow=hidden;rotatable=0;points=[[0,0.5],[1,0.5]];portConstraint=eastwest;" parent="5rygWhRONN88SNYjt8ui-174" vertex="1">
          <mxGeometry y="334" width="160" height="26" as="geometry" />
        </mxCell>
        <mxCell id="muvpBoI5yuBOFcIrjpcm-0" style="edgeStyle=orthogonalEdgeStyle;rounded=0;orthogonalLoop=1;jettySize=auto;html=1;exitX=0;exitY=0.5;exitDx=0;exitDy=0;entryX=0.003;entryY=0.091;entryDx=0;entryDy=0;entryPerimeter=0;dashed=1;" parent="WIyWlLk6GJQsqaUBKTNV-1" source="sOrNMbXC4IDYlmC76Fjy-17" target="5rygWhRONN88SNYjt8ui-151" edge="1">
          <mxGeometry relative="1" as="geometry">
            <Array as="points">
              <mxPoint x="410" y="-85" />
              <mxPoint x="410" y="-579" />
            </Array>
          </mxGeometry>
        </mxCell>
        <mxCell id="sOrNMbXC4IDYlmC76Fjy-14" value="PathNode" style="swimlane;fontStyle=2;align=center;verticalAlign=top;childLayout=stackLayout;horizontal=1;startSize=40;horizontalStack=0;resizeParent=1;resizeLast=0;collapsible=1;marginBottom=0;rounded=0;shadow=0;strokeWidth=1;" parent="WIyWlLk6GJQsqaUBKTNV-1" vertex="1">
          <mxGeometry x="430" y="-220" width="230" height="280" as="geometry">
            <mxRectangle x="220" y="70" width="160" height="26" as="alternateBounds" />
          </mxGeometry>
        </mxCell>
        <mxCell id="sOrNMbXC4IDYlmC76Fjy-15" value="-m_prev : self" style="text;align=left;verticalAlign=top;spacingLeft=4;spacingRight=4;overflow=hidden;rotatable=0;points=[[0,0.5],[1,0.5]];portConstraint=eastwest;" parent="sOrNMbXC4IDYlmC76Fjy-14" vertex="1">
          <mxGeometry y="40" width="230" height="26" as="geometry" />
        </mxCell>
        <mxCell id="sOrNMbXC4IDYlmC76Fjy-18" value="-m_next : self" style="text;align=left;verticalAlign=top;spacingLeft=4;spacingRight=4;overflow=hidden;rotatable=0;points=[[0,0.5],[1,0.5]];portConstraint=eastwest;" parent="sOrNMbXC4IDYlmC76Fjy-14" vertex="1">
          <mxGeometry y="66" width="230" height="26" as="geometry" />
        </mxCell>
        <mxCell id="sOrNMbXC4IDYlmC76Fjy-22" value="-m_position : Vector2" style="text;align=left;verticalAlign=top;spacingLeft=4;spacingRight=4;overflow=hidden;rotatable=0;points=[[0,0.5],[1,0.5]];portConstraint=eastwest;" parent="sOrNMbXC4IDYlmC76Fjy-14" vertex="1">
          <mxGeometry y="92" width="230" height="26" as="geometry" />
        </mxCell>
        <mxCell id="sOrNMbXC4IDYlmC76Fjy-23" value="-m_cost : int" style="text;align=left;verticalAlign=top;spacingLeft=4;spacingRight=4;overflow=hidden;rotatable=0;points=[[0,0.5],[1,0.5]];portConstraint=eastwest;" parent="sOrNMbXC4IDYlmC76Fjy-14" vertex="1">
          <mxGeometry y="118" width="230" height="26" as="geometry" />
        </mxCell>
        <mxCell id="sOrNMbXC4IDYlmC76Fjy-16" value="" style="line;html=1;strokeWidth=1;align=left;verticalAlign=middle;spacingTop=-1;spacingLeft=3;spacingRight=3;rotatable=0;labelPosition=right;points=[];portConstraint=eastwest;" parent="sOrNMbXC4IDYlmC76Fjy-14" vertex="1">
          <mxGeometry y="144" width="230" height="8" as="geometry" />
        </mxCell>
        <mxCell id="sOrNMbXC4IDYlmC76Fjy-17" value="+s_findPath(Map, Vector2) : list&lt;Vector2&gt; " style="text;align=left;verticalAlign=top;spacingLeft=4;spacingRight=4;overflow=hidden;rotatable=0;points=[[0,0.5],[1,0.5]];portConstraint=eastwest;" parent="sOrNMbXC4IDYlmC76Fjy-14" vertex="1">
          <mxGeometry y="152" width="230" height="26" as="geometry" />
        </mxCell>
        <mxCell id="sOrNMbXC4IDYlmC76Fjy-24" value="+s_buildPath() : void" style="text;align=left;verticalAlign=top;spacingLeft=4;spacingRight=4;overflow=hidden;rotatable=0;points=[[0,0.5],[1,0.5]];portConstraint=eastwest;labelBackgroundColor=default;" parent="sOrNMbXC4IDYlmC76Fjy-14" vertex="1">
          <mxGeometry y="178" width="230" height="26" as="geometry" />
        </mxCell>
        <mxCell id="sOrNMbXC4IDYlmC76Fjy-19" value="-s_manhettenDistance(Vector2) : int" style="text;align=left;verticalAlign=top;spacingLeft=4;spacingRight=4;overflow=hidden;rotatable=0;points=[[0,0.5],[1,0.5]];portConstraint=eastwest;" parent="sOrNMbXC4IDYlmC76Fjy-14" vertex="1">
          <mxGeometry y="204" width="230" height="26" as="geometry" />
        </mxCell>
        <mxCell id="sOrNMbXC4IDYlmC76Fjy-21" value="-s_getNeighboursPos(Map) : list&lt;Vector2&gt;" style="text;align=left;verticalAlign=top;spacingLeft=4;spacingRight=4;overflow=hidden;rotatable=0;points=[[0,0.5],[1,0.5]];portConstraint=eastwest;" parent="sOrNMbXC4IDYlmC76Fjy-14" vertex="1">
          <mxGeometry y="230" width="230" height="26" as="geometry" />
        </mxCell>
        <mxCell id="b3c_SwX3CGdLqoRGaVpB-2" value="Tourel" style="swimlane;fontStyle=0;align=center;verticalAlign=top;childLayout=stackLayout;horizontal=1;startSize=40;horizontalStack=0;resizeParent=1;resizeLast=0;collapsible=1;marginBottom=0;rounded=0;shadow=0;strokeWidth=1;" parent="WIyWlLk6GJQsqaUBKTNV-1" vertex="1">
          <mxGeometry x="896" y="-599" width="160" height="360" as="geometry">
            <mxRectangle x="220" y="70" width="160" height="26" as="alternateBounds" />
          </mxGeometry>
        </mxCell>
        <mxCell id="muvpBoI5yuBOFcIrjpcm-10" value="-m_bullet : Bullet" style="text;align=left;verticalAlign=top;spacingLeft=4;spacingRight=4;overflow=hidden;rotatable=0;points=[[0,0.5],[1,0.5]];portConstraint=eastwest;" parent="b3c_SwX3CGdLqoRGaVpB-2" vertex="1">
          <mxGeometry y="40" width="160" height="26" as="geometry" />
        </mxCell>
        <mxCell id="muvpBoI5yuBOFcIrjpcm-27" value="-m_body : Rectangle" style="text;align=left;verticalAlign=top;spacingLeft=4;spacingRight=4;overflow=hidden;rotatable=0;points=[[0,0.5],[1,0.5]];portConstraint=eastwest;" parent="b3c_SwX3CGdLqoRGaVpB-2" vertex="1">
          <mxGeometry y="66" width="160" height="26" as="geometry" />
        </mxCell>
        <mxCell id="muvpBoI5yuBOFcIrjpcm-25" value="-m_rangeOfAction : double" style="text;align=left;verticalAlign=top;spacingLeft=4;spacingRight=4;overflow=hidden;rotatable=0;points=[[0,0.5],[1,0.5]];portConstraint=eastwest;" parent="b3c_SwX3CGdLqoRGaVpB-2" vertex="1">
          <mxGeometry y="92" width="160" height="26" as="geometry" />
        </mxCell>
        <mxCell id="muvpBoI5yuBOFcIrjpcm-26" value="-m_target : Creep" style="text;align=left;verticalAlign=top;spacingLeft=4;spacingRight=4;overflow=hidden;rotatable=0;points=[[0,0.5],[1,0.5]];portConstraint=eastwest;" parent="b3c_SwX3CGdLqoRGaVpB-2" vertex="1">
          <mxGeometry y="118" width="160" height="26" as="geometry" />
        </mxCell>
        <mxCell id="muvpBoI5yuBOFcIrjpcm-18" value="-m_direction : Direction" style="text;align=left;verticalAlign=top;spacingLeft=4;spacingRight=4;overflow=hidden;rotatable=0;points=[[0,0.5],[1,0.5]];portConstraint=eastwest;" parent="b3c_SwX3CGdLqoRGaVpB-2" vertex="1">
          <mxGeometry y="144" width="160" height="26" as="geometry" />
        </mxCell>
        <mxCell id="130k1nIRX02G0SaL0c_t-0" value="-m_shootFrequency : time" style="text;align=left;verticalAlign=top;spacingLeft=4;spacingRight=4;overflow=hidden;rotatable=0;points=[[0,0.5],[1,0.5]];portConstraint=eastwest;" parent="b3c_SwX3CGdLqoRGaVpB-2" vertex="1">
          <mxGeometry y="170" width="160" height="26" as="geometry" />
        </mxCell>
        <mxCell id="130k1nIRX02G0SaL0c_t-1" value="-m_lastShot : time" style="text;align=left;verticalAlign=top;spacingLeft=4;spacingRight=4;overflow=hidden;rotatable=0;points=[[0,0.5],[1,0.5]];portConstraint=eastwest;" parent="b3c_SwX3CGdLqoRGaVpB-2" vertex="1">
          <mxGeometry y="196" width="160" height="26" as="geometry" />
        </mxCell>
        <mxCell id="57HEkyMDVmlf4uenoFg5-33" value="-m_color : Color" style="text;align=left;verticalAlign=top;spacingLeft=4;spacingRight=4;overflow=hidden;rotatable=0;points=[[0,0.5],[1,0.5]];portConstraint=eastwest;" parent="b3c_SwX3CGdLqoRGaVpB-2" vertex="1">
          <mxGeometry y="222" width="160" height="26" as="geometry" />
        </mxCell>
        <mxCell id="muvpBoI5yuBOFcIrjpcm-20" value="-s_texture : Texture2D" style="text;align=left;verticalAlign=top;spacingLeft=4;spacingRight=4;overflow=hidden;rotatable=0;points=[[0,0.5],[1,0.5]];portConstraint=eastwest;" parent="b3c_SwX3CGdLqoRGaVpB-2" vertex="1">
          <mxGeometry y="248" width="160" height="26" as="geometry" />
        </mxCell>
        <mxCell id="b3c_SwX3CGdLqoRGaVpB-4" value="" style="line;html=1;strokeWidth=1;align=left;verticalAlign=middle;spacingTop=-1;spacingLeft=3;spacingRight=3;rotatable=0;labelPosition=right;points=[];portConstraint=eastwest;" parent="b3c_SwX3CGdLqoRGaVpB-2" vertex="1">
          <mxGeometry y="274" width="160" height="8" as="geometry" />
        </mxCell>
        <mxCell id="b3c_SwX3CGdLqoRGaVpB-5" value="-shoot() : void" style="text;align=left;verticalAlign=top;spacingLeft=4;spacingRight=4;overflow=hidden;rotatable=0;points=[[0,0.5],[1,0.5]];portConstraint=eastwest;" parent="b3c_SwX3CGdLqoRGaVpB-2" vertex="1">
          <mxGeometry y="282" width="160" height="26" as="geometry" />
        </mxCell>
        <mxCell id="muvpBoI5yuBOFcIrjpcm-21" value="-locateTarget() : void" style="text;align=left;verticalAlign=top;spacingLeft=4;spacingRight=4;overflow=hidden;rotatable=0;points=[[0,0.5],[1,0.5]];portConstraint=eastwest;" parent="b3c_SwX3CGdLqoRGaVpB-2" vertex="1">
          <mxGeometry y="308" width="160" height="26" as="geometry" />
        </mxCell>
        <mxCell id="57HEkyMDVmlf4uenoFg5-40" value="+getPosition() : Vector2" style="text;align=left;verticalAlign=top;spacingLeft=4;spacingRight=4;overflow=hidden;rotatable=0;points=[[0,0.5],[1,0.5]];portConstraint=eastwest;" parent="b3c_SwX3CGdLqoRGaVpB-2" vertex="1">
          <mxGeometry y="334" width="160" height="26" as="geometry" />
        </mxCell>
        <mxCell id="b3c_SwX3CGdLqoRGaVpB-8" style="edgeStyle=orthogonalEdgeStyle;rounded=0;orthogonalLoop=1;jettySize=auto;html=1;endArrow=diamondThin;endFill=1;endSize=9;" parent="WIyWlLk6GJQsqaUBKTNV-1" source="b3c_SwX3CGdLqoRGaVpB-6" target="5rygWhRONN88SNYjt8ui-140" edge="1">
          <mxGeometry relative="1" as="geometry">
            <Array as="points">
              <mxPoint x="400" y="-777" />
              <mxPoint x="400" y="-932" />
            </Array>
          </mxGeometry>
        </mxCell>
        <mxCell id="muvpBoI5yuBOFcIrjpcm-11" value="Bullet" style="swimlane;fontStyle=0;align=center;verticalAlign=top;childLayout=stackLayout;horizontal=1;startSize=40;horizontalStack=0;resizeParent=1;resizeLast=0;collapsible=1;marginBottom=0;rounded=0;shadow=0;strokeWidth=1;" parent="WIyWlLk6GJQsqaUBKTNV-1" vertex="1">
          <mxGeometry x="1120" y="-600" width="160" height="230" as="geometry">
            <mxRectangle x="220" y="70" width="160" height="26" as="alternateBounds" />
          </mxGeometry>
        </mxCell>
        <mxCell id="57HEkyMDVmlf4uenoFg5-29" value="-m_body : Rectangle" style="text;align=left;verticalAlign=top;spacingLeft=4;spacingRight=4;overflow=hidden;rotatable=0;points=[[0,0.5],[1,0.5]];portConstraint=eastwest;" parent="muvpBoI5yuBOFcIrjpcm-11" vertex="1">
          <mxGeometry y="40" width="160" height="26" as="geometry" />
        </mxCell>
        <mxCell id="57HEkyMDVmlf4uenoFg5-30" value="-m_direction : Direction" style="text;align=left;verticalAlign=top;spacingLeft=4;spacingRight=4;overflow=hidden;rotatable=0;points=[[0,0.5],[1,0.5]];portConstraint=eastwest;" parent="muvpBoI5yuBOFcIrjpcm-11" vertex="1">
          <mxGeometry y="66" width="160" height="26" as="geometry" />
        </mxCell>
        <mxCell id="iSpKXZJJslrt3K8X691c-31" value="-m_speed : Speed" style="text;align=left;verticalAlign=top;spacingLeft=4;spacingRight=4;overflow=hidden;rotatable=0;points=[[0,0.5],[1,0.5]];portConstraint=eastwest;" parent="muvpBoI5yuBOFcIrjpcm-11" vertex="1">
          <mxGeometry y="92" width="160" height="26" as="geometry" />
        </mxCell>
        <mxCell id="57HEkyMDVmlf4uenoFg5-34" value="-m_color : Color" style="text;align=left;verticalAlign=top;spacingLeft=4;spacingRight=4;overflow=hidden;rotatable=0;points=[[0,0.5],[1,0.5]];portConstraint=eastwest;" parent="muvpBoI5yuBOFcIrjpcm-11" vertex="1">
          <mxGeometry y="118" width="160" height="26" as="geometry" />
        </mxCell>
        <mxCell id="57HEkyMDVmlf4uenoFg5-41" value="-m_damage : int" style="text;align=left;verticalAlign=top;spacingLeft=4;spacingRight=4;overflow=hidden;rotatable=0;points=[[0,0.5],[1,0.5]];portConstraint=eastwest;" parent="muvpBoI5yuBOFcIrjpcm-11" vertex="1">
          <mxGeometry y="144" width="160" height="26" as="geometry" />
        </mxCell>
        <mxCell id="57HEkyMDVmlf4uenoFg5-31" value="-s_texture : Texture2D" style="text;align=left;verticalAlign=top;spacingLeft=4;spacingRight=4;overflow=hidden;rotatable=0;points=[[0,0.5],[1,0.5]];portConstraint=eastwest;" parent="muvpBoI5yuBOFcIrjpcm-11" vertex="1">
          <mxGeometry y="170" width="160" height="26" as="geometry" />
        </mxCell>
        <mxCell id="muvpBoI5yuBOFcIrjpcm-13" value="" style="line;html=1;strokeWidth=1;align=left;verticalAlign=middle;spacingTop=-1;spacingLeft=3;spacingRight=3;rotatable=0;labelPosition=right;points=[];portConstraint=eastwest;" parent="muvpBoI5yuBOFcIrjpcm-11" vertex="1">
          <mxGeometry y="196" width="160" height="8" as="geometry" />
        </mxCell>
        <mxCell id="57HEkyMDVmlf4uenoFg5-42" value="+getPosition() : Vector2D" style="text;align=left;verticalAlign=top;spacingLeft=4;spacingRight=4;overflow=hidden;rotatable=0;points=[[0,0.5],[1,0.5]];portConstraint=eastwest;" parent="muvpBoI5yuBOFcIrjpcm-11" vertex="1">
          <mxGeometry y="204" width="160" height="26" as="geometry" />
        </mxCell>
        <mxCell id="muvpBoI5yuBOFcIrjpcm-30" value="components&#xa;namespace&#xa;" style="swimlane;fontStyle=0;align=center;verticalAlign=top;childLayout=stackLayout;horizontal=1;startSize=40;horizontalStack=0;resizeParent=1;resizeLast=0;collapsible=1;marginBottom=0;rounded=0;shadow=0;strokeWidth=1;" parent="WIyWlLk6GJQsqaUBKTNV-1" vertex="1">
          <mxGeometry x="452" y="-1340" width="160" height="468" as="geometry">
            <mxRectangle x="452" y="-1340" width="160" height="26" as="alternateBounds" />
          </mxGeometry>
        </mxCell>
        <mxCell id="muvpBoI5yuBOFcIrjpcm-34" value="Body&#xa;typedef Rectangle&#xa;" style="swimlane;fontStyle=0;align=center;verticalAlign=top;childLayout=stackLayout;horizontal=1;startSize=40;horizontalStack=0;resizeParent=1;resizeLast=0;collapsible=1;marginBottom=0;rounded=0;shadow=0;strokeWidth=1;" parent="muvpBoI5yuBOFcIrjpcm-30" vertex="1">
          <mxGeometry y="40" width="160" height="40" as="geometry">
            <mxRectangle y="40" width="160" height="26" as="alternateBounds" />
          </mxGeometry>
        </mxCell>
        <mxCell id="muvpBoI5yuBOFcIrjpcm-38" value="Health" style="swimlane;fontStyle=0;align=center;verticalAlign=top;childLayout=stackLayout;horizontal=1;startSize=40;horizontalStack=0;resizeParent=1;resizeLast=0;collapsible=1;marginBottom=0;rounded=0;shadow=0;strokeWidth=1;" parent="muvpBoI5yuBOFcIrjpcm-30" vertex="1">
          <mxGeometry y="80" width="160" height="74" as="geometry">
            <mxRectangle y="80" width="160" height="26" as="alternateBounds" />
          </mxGeometry>
        </mxCell>
        <mxCell id="muvpBoI5yuBOFcIrjpcm-39" value="+value float" style="text;align=left;verticalAlign=top;spacingLeft=4;spacingRight=4;overflow=hidden;rotatable=0;points=[[0,0.5],[1,0.5]];portConstraint=eastwest;" parent="muvpBoI5yuBOFcIrjpcm-38" vertex="1">
          <mxGeometry y="40" width="160" height="26" as="geometry" />
        </mxCell>
        <mxCell id="muvpBoI5yuBOFcIrjpcm-40" value="" style="line;html=1;strokeWidth=1;align=left;verticalAlign=middle;spacingTop=-1;spacingLeft=3;spacingRight=3;rotatable=0;labelPosition=right;points=[];portConstraint=eastwest;" parent="muvpBoI5yuBOFcIrjpcm-38" vertex="1">
          <mxGeometry y="66" width="160" height="8" as="geometry" />
        </mxCell>
        <mxCell id="muvpBoI5yuBOFcIrjpcm-42" value="EnemyTag" style="swimlane;fontStyle=0;align=center;verticalAlign=top;childLayout=stackLayout;horizontal=1;startSize=40;horizontalStack=0;resizeParent=1;resizeLast=0;collapsible=1;marginBottom=0;rounded=0;shadow=0;strokeWidth=1;" parent="muvpBoI5yuBOFcIrjpcm-30" vertex="1">
          <mxGeometry y="154" width="160" height="40" as="geometry">
            <mxRectangle y="154" width="160" height="26" as="alternateBounds" />
          </mxGeometry>
        </mxCell>
        <mxCell id="57HEkyMDVmlf4uenoFg5-1" value="Direction" style="swimlane;fontStyle=0;align=center;verticalAlign=top;childLayout=stackLayout;horizontal=1;startSize=40;horizontalStack=0;resizeParent=1;resizeLast=0;collapsible=1;marginBottom=0;rounded=0;shadow=0;strokeWidth=1;" parent="muvpBoI5yuBOFcIrjpcm-30" vertex="1">
          <mxGeometry y="194" width="160" height="76" as="geometry">
            <mxRectangle y="194" width="160" height="26" as="alternateBounds" />
          </mxGeometry>
        </mxCell>
        <mxCell id="57HEkyMDVmlf4uenoFg5-2" value="+value : float" style="text;align=left;verticalAlign=top;spacingLeft=4;spacingRight=4;overflow=hidden;rotatable=0;points=[[0,0.5],[1,0.5]];portConstraint=eastwest;" parent="57HEkyMDVmlf4uenoFg5-1" vertex="1">
          <mxGeometry y="40" width="160" height="26" as="geometry" />
        </mxCell>
        <mxCell id="57HEkyMDVmlf4uenoFg5-9" value="Speed" style="swimlane;fontStyle=0;align=center;verticalAlign=top;childLayout=stackLayout;horizontal=1;startSize=40;horizontalStack=0;resizeParent=1;resizeLast=0;collapsible=1;marginBottom=0;rounded=0;shadow=0;strokeWidth=1;" parent="muvpBoI5yuBOFcIrjpcm-30" vertex="1">
          <mxGeometry y="270" width="160" height="198" as="geometry">
            <mxRectangle y="194" width="160" height="26" as="alternateBounds" />
          </mxGeometry>
        </mxCell>
        <mxCell id="57HEkyMDVmlf4uenoFg5-11" value="+value : float" style="text;align=left;verticalAlign=top;spacingLeft=4;spacingRight=4;overflow=hidden;rotatable=0;points=[[0,0.5],[1,0.5]];portConstraint=eastwest;" parent="57HEkyMDVmlf4uenoFg5-9" vertex="1">
          <mxGeometry y="40" width="160" height="26" as="geometry" />
        </mxCell>
        <mxCell id="X6WMRJas0Hvn011ylAVO-20" value="Money" style="swimlane;fontStyle=0;align=center;verticalAlign=top;childLayout=stackLayout;horizontal=1;startSize=40;horizontalStack=0;resizeParent=1;resizeLast=0;collapsible=1;marginBottom=0;rounded=0;shadow=0;strokeWidth=1;" parent="57HEkyMDVmlf4uenoFg5-9" vertex="1">
          <mxGeometry y="66" width="160" height="132" as="geometry">
            <mxRectangle y="194" width="160" height="26" as="alternateBounds" />
          </mxGeometry>
        </mxCell>
        <mxCell id="X6WMRJas0Hvn011ylAVO-21" value="+value : unsigned int" style="text;align=left;verticalAlign=top;spacingLeft=4;spacingRight=4;overflow=hidden;rotatable=0;points=[[0,0.5],[1,0.5]];portConstraint=eastwest;" parent="X6WMRJas0Hvn011ylAVO-20" vertex="1">
          <mxGeometry y="40" width="160" height="26" as="geometry" />
        </mxCell>
        <mxCell id="t3JStGqKMk5G3Lj9DYAn-9" value="PlayerTag" style="swimlane;fontStyle=0;align=center;verticalAlign=top;childLayout=stackLayout;horizontal=1;startSize=40;horizontalStack=0;resizeParent=1;resizeLast=0;collapsible=1;marginBottom=0;rounded=0;shadow=0;strokeWidth=1;" parent="X6WMRJas0Hvn011ylAVO-20" vertex="1">
          <mxGeometry y="66" width="160" height="34" as="geometry">
            <mxRectangle y="194" width="160" height="26" as="alternateBounds" />
          </mxGeometry>
        </mxCell>
        <mxCell id="muvpBoI5yuBOFcIrjpcm-48" style="edgeStyle=orthogonalEdgeStyle;rounded=0;orthogonalLoop=1;jettySize=auto;html=1;entryX=1;entryY=0.5;entryDx=0;entryDy=0;endArrow=none;endFill=0;endSize=6;startArrow=diamondThin;startFill=1;startSize=9;" parent="WIyWlLk6GJQsqaUBKTNV-1" source="5rygWhRONN88SNYjt8ui-175" target="muvpBoI5yuBOFcIrjpcm-34" edge="1">
          <mxGeometry relative="1" as="geometry">
            <Array as="points">
              <mxPoint x="670" y="-547" />
              <mxPoint x="670" y="-1280" />
            </Array>
          </mxGeometry>
        </mxCell>
        <mxCell id="muvpBoI5yuBOFcIrjpcm-49" style="edgeStyle=orthogonalEdgeStyle;rounded=0;orthogonalLoop=1;jettySize=auto;html=1;entryX=1;entryY=0.25;entryDx=0;entryDy=0;endArrow=none;endFill=0;endSize=6;startArrow=diamondThin;startFill=1;startSize=9;" parent="WIyWlLk6GJQsqaUBKTNV-1" source="sOrNMbXC4IDYlmC76Fjy-10" target="muvpBoI5yuBOFcIrjpcm-38" edge="1">
          <mxGeometry relative="1" as="geometry">
            <Array as="points">
              <mxPoint x="660" y="-520" />
              <mxPoint x="660" y="-1242" />
            </Array>
          </mxGeometry>
        </mxCell>
        <mxCell id="muvpBoI5yuBOFcIrjpcm-60" style="edgeStyle=orthogonalEdgeStyle;rounded=0;orthogonalLoop=1;jettySize=auto;html=1;endArrow=none;endFill=0;endSize=6;startArrow=diamondThin;startFill=1;startSize=9;" parent="WIyWlLk6GJQsqaUBKTNV-1" source="Yk1TS9U53KZV7oq_ULZb-33" target="X6WMRJas0Hvn011ylAVO-20" edge="1">
          <mxGeometry relative="1" as="geometry">
            <Array as="points">
              <mxPoint x="630" y="-420" />
              <mxPoint x="630" y="-990" />
            </Array>
          </mxGeometry>
        </mxCell>
        <mxCell id="muvpBoI5yuBOFcIrjpcm-62" style="edgeStyle=orthogonalEdgeStyle;rounded=0;orthogonalLoop=1;jettySize=auto;html=1;entryX=1;entryY=0.5;entryDx=0;entryDy=0;endArrow=none;endFill=0;endSize=6;startArrow=diamondThin;startFill=1;startSize=9;" parent="WIyWlLk6GJQsqaUBKTNV-1" source="muvpBoI5yuBOFcIrjpcm-61" target="muvpBoI5yuBOFcIrjpcm-42" edge="1">
          <mxGeometry relative="1" as="geometry">
            <Array as="points">
              <mxPoint x="650" y="-495" />
              <mxPoint x="650" y="-1166" />
            </Array>
          </mxGeometry>
        </mxCell>
        <mxCell id="57HEkyMDVmlf4uenoFg5-13" style="edgeStyle=orthogonalEdgeStyle;rounded=0;orthogonalLoop=1;jettySize=auto;html=1;entryX=1;entryY=0.25;entryDx=0;entryDy=0;endArrow=none;endFill=0;endSize=6;startArrow=diamondThin;startFill=1;startSize=9;" parent="WIyWlLk6GJQsqaUBKTNV-1" source="sOrNMbXC4IDYlmC76Fjy-2" target="57HEkyMDVmlf4uenoFg5-9" edge="1">
          <mxGeometry relative="1" as="geometry">
            <Array as="points">
              <mxPoint x="630" y="-443" />
              <mxPoint x="630" y="-1054" />
            </Array>
          </mxGeometry>
        </mxCell>
        <mxCell id="57HEkyMDVmlf4uenoFg5-15" style="edgeStyle=orthogonalEdgeStyle;rounded=0;orthogonalLoop=1;jettySize=auto;html=1;entryX=1;entryY=0.25;entryDx=0;entryDy=0;endArrow=none;endFill=0;endSize=6;startArrow=diamondThin;startFill=1;startSize=9;" parent="WIyWlLk6GJQsqaUBKTNV-1" source="sOrNMbXC4IDYlmC76Fjy-3" target="57HEkyMDVmlf4uenoFg5-1" edge="1">
          <mxGeometry relative="1" as="geometry">
            <Array as="points">
              <mxPoint x="640" y="-469" />
              <mxPoint x="640" y="-1127" />
            </Array>
          </mxGeometry>
        </mxCell>
        <mxCell id="57HEkyMDVmlf4uenoFg5-16" style="edgeStyle=orthogonalEdgeStyle;rounded=0;orthogonalLoop=1;jettySize=auto;html=1;entryX=1;entryY=0.25;entryDx=0;entryDy=0;endArrow=none;endFill=0;endSize=6;startArrow=diamondThin;startFill=1;startSize=9;" parent="WIyWlLk6GJQsqaUBKTNV-1" source="muvpBoI5yuBOFcIrjpcm-18" target="57HEkyMDVmlf4uenoFg5-1" edge="1">
          <mxGeometry relative="1" as="geometry">
            <Array as="points">
              <mxPoint x="850" y="-442" />
              <mxPoint x="850" y="-1127" />
            </Array>
          </mxGeometry>
        </mxCell>
        <mxCell id="57HEkyMDVmlf4uenoFg5-23" value="TaskDesk" style="swimlane;whiteSpace=wrap;html=1;" parent="WIyWlLk6GJQsqaUBKTNV-1" vertex="1">
          <mxGeometry x="980" y="-1670" width="710" height="780" as="geometry">
            <mxRectangle x="980" y="-1670" width="140" height="30" as="alternateBounds" />
          </mxGeometry>
        </mxCell>
        <mxCell id="57HEkyMDVmlf4uenoFg5-18" value="Object Pool for bullets in Tourel" style="swimlane;fontStyle=0;childLayout=stackLayout;horizontal=1;startSize=30;horizontalStack=0;resizeParent=1;resizeParentMax=0;resizeLast=0;collapsible=1;marginBottom=0;whiteSpace=wrap;html=1;" parent="57HEkyMDVmlf4uenoFg5-23" vertex="1">
          <mxGeometry x="414" y="180" width="260" height="120" as="geometry" />
        </mxCell>
        <mxCell id="57HEkyMDVmlf4uenoFg5-19" value="Add Bullet vector to Tourel" style="text;strokeColor=none;fillColor=none;align=left;verticalAlign=middle;spacingLeft=4;spacingRight=4;overflow=hidden;points=[[0,0.5],[1,0.5]];portConstraint=eastwest;rotatable=0;whiteSpace=wrap;html=1;" parent="57HEkyMDVmlf4uenoFg5-18" vertex="1">
          <mxGeometry y="30" width="260" height="30" as="geometry" />
        </mxCell>
        <mxCell id="57HEkyMDVmlf4uenoFg5-20" value="Check whenever Bullet is out of map bounds and &quot;Kill&quot; it if so" style="text;strokeColor=none;fillColor=none;align=left;verticalAlign=middle;spacingLeft=4;spacingRight=4;overflow=hidden;points=[[0,0.5],[1,0.5]];portConstraint=eastwest;rotatable=0;whiteSpace=wrap;html=1;" parent="57HEkyMDVmlf4uenoFg5-18" vertex="1">
          <mxGeometry y="60" width="260" height="30" as="geometry" />
        </mxCell>
        <mxCell id="57HEkyMDVmlf4uenoFg5-21" value="If need to spawn&amp;nbsp; new Bullet, just take Dead one and reset it" style="text;strokeColor=none;fillColor=none;align=left;verticalAlign=middle;spacingLeft=4;spacingRight=4;overflow=hidden;points=[[0,0.5],[1,0.5]];portConstraint=eastwest;rotatable=0;whiteSpace=wrap;html=1;" parent="57HEkyMDVmlf4uenoFg5-18" vertex="1">
          <mxGeometry y="90" width="260" height="30" as="geometry" />
        </mxCell>
        <mxCell id="UR-E5JvUkwHcXYG5B1gH-28" value="CameraObject" style="swimlane;fontStyle=0;childLayout=stackLayout;horizontal=1;startSize=30;horizontalStack=0;resizeParent=1;resizeParentMax=0;resizeLast=0;collapsible=1;marginBottom=0;whiteSpace=wrap;html=1;" parent="57HEkyMDVmlf4uenoFg5-23" vertex="1">
          <mxGeometry x="40" y="180" width="350" height="60" as="geometry" />
        </mxCell>
        <mxCell id="UR-E5JvUkwHcXYG5B1gH-31" value="CameraObject has restrictions to have just enough freedom" style="text;strokeColor=none;fillColor=none;align=left;verticalAlign=middle;spacingLeft=4;spacingRight=4;overflow=hidden;points=[[0,0.5],[1,0.5]];portConstraint=eastwest;rotatable=0;whiteSpace=wrap;html=1;" parent="UR-E5JvUkwHcXYG5B1gH-28" vertex="1">
          <mxGeometry y="30" width="350" height="30" as="geometry" />
        </mxCell>
        <mxCell id="Yk1TS9U53KZV7oq_ULZb-14" value="Conditional Spawner template" style="swimlane;fontStyle=0;childLayout=stackLayout;horizontal=1;startSize=30;horizontalStack=0;resizeParent=1;resizeParentMax=0;resizeLast=0;collapsible=1;marginBottom=0;whiteSpace=wrap;html=1;" vertex="1" parent="57HEkyMDVmlf4uenoFg5-23">
          <mxGeometry x="50" y="300" width="260" height="120" as="geometry" />
        </mxCell>
        <mxCell id="Yk1TS9U53KZV7oq_ULZb-15" value="write Spawner which will clone T conditionally" style="text;strokeColor=none;fillColor=none;align=left;verticalAlign=middle;spacingLeft=4;spacingRight=4;overflow=hidden;points=[[0,0.5],[1,0.5]];portConstraint=eastwest;rotatable=0;whiteSpace=wrap;html=1;" vertex="1" parent="Yk1TS9U53KZV7oq_ULZb-14">
          <mxGeometry y="30" width="260" height="30" as="geometry" />
        </mxCell>
        <mxCell id="Yk1TS9U53KZV7oq_ULZb-16" value="Condition can be even timecheck" style="text;strokeColor=none;fillColor=none;align=left;verticalAlign=middle;spacingLeft=4;spacingRight=4;overflow=hidden;points=[[0,0.5],[1,0.5]];portConstraint=eastwest;rotatable=0;whiteSpace=wrap;html=1;" vertex="1" parent="Yk1TS9U53KZV7oq_ULZb-14">
          <mxGeometry y="60" width="260" height="30" as="geometry" />
        </mxCell>
        <mxCell id="Yk1TS9U53KZV7oq_ULZb-17" value="probably condition should be function" style="text;strokeColor=none;fillColor=none;align=left;verticalAlign=middle;spacingLeft=4;spacingRight=4;overflow=hidden;points=[[0,0.5],[1,0.5]];portConstraint=eastwest;rotatable=0;whiteSpace=wrap;html=1;" vertex="1" parent="Yk1TS9U53KZV7oq_ULZb-14">
          <mxGeometry y="90" width="260" height="30" as="geometry" />
        </mxCell>
        <mxCell id="57HEkyMDVmlf4uenoFg5-26" style="edgeStyle=orthogonalEdgeStyle;rounded=0;orthogonalLoop=1;jettySize=auto;html=1;entryX=0.004;entryY=0.106;entryDx=0;entryDy=0;entryPerimeter=0;dashed=1;" parent="WIyWlLk6GJQsqaUBKTNV-1" source="5rygWhRONN88SNYjt8ui-10" target="5rygWhRONN88SNYjt8ui-62" edge="1">
          <mxGeometry relative="1" as="geometry">
            <mxPoint x="30" y="-550" as="targetPoint" />
            <Array as="points">
              <mxPoint x="-80" y="-1037" />
              <mxPoint x="-80" y="-576" />
            </Array>
          </mxGeometry>
        </mxCell>
        <mxCell id="iSpKXZJJslrt3K8X691c-1" value="Type" style="swimlane;fontStyle=0;childLayout=stackLayout;horizontal=1;startSize=30;horizontalStack=0;resizeParent=1;resizeParentMax=0;resizeLast=0;collapsible=1;marginBottom=0;whiteSpace=wrap;html=1;" parent="WIyWlLk6GJQsqaUBKTNV-1" vertex="1">
          <mxGeometry x="130" y="-1840" width="140" height="240" as="geometry" />
        </mxCell>
        <mxCell id="iSpKXZJJslrt3K8X691c-2" value="list" style="text;strokeColor=none;fillColor=none;align=left;verticalAlign=middle;spacingLeft=4;spacingRight=4;overflow=hidden;points=[[0,0.5],[1,0.5]];portConstraint=eastwest;rotatable=0;whiteSpace=wrap;html=1;" parent="iSpKXZJJslrt3K8X691c-1" vertex="1">
          <mxGeometry y="30" width="140" height="30" as="geometry" />
        </mxCell>
        <mxCell id="iSpKXZJJslrt3K8X691c-3" value="type" style="text;strokeColor=none;fillColor=none;align=left;verticalAlign=middle;spacingLeft=4;spacingRight=4;overflow=hidden;points=[[0,0.5],[1,0.5]];portConstraint=eastwest;rotatable=0;whiteSpace=wrap;html=1;" parent="iSpKXZJJslrt3K8X691c-1" vertex="1">
          <mxGeometry y="60" width="140" height="30" as="geometry" />
        </mxCell>
        <mxCell id="iSpKXZJJslrt3K8X691c-11" value="self type" style="text;strokeColor=none;fillColor=none;align=left;verticalAlign=middle;spacingLeft=4;spacingRight=4;overflow=hidden;points=[[0,0.5],[1,0.5]];portConstraint=eastwest;rotatable=0;whiteSpace=wrap;html=1;" parent="iSpKXZJJslrt3K8X691c-1" vertex="1">
          <mxGeometry y="90" width="140" height="30" as="geometry" />
        </mxCell>
        <mxCell id="iSpKXZJJslrt3K8X691c-15" value="double" style="text;strokeColor=none;fillColor=none;align=left;verticalAlign=middle;spacingLeft=4;spacingRight=4;overflow=hidden;points=[[0,0.5],[1,0.5]];portConstraint=eastwest;rotatable=0;whiteSpace=wrap;html=1;" parent="iSpKXZJJslrt3K8X691c-1" vertex="1">
          <mxGeometry y="120" width="140" height="30" as="geometry" />
        </mxCell>
        <mxCell id="iSpKXZJJslrt3K8X691c-19" value="iterator" style="text;strokeColor=none;fillColor=none;align=left;verticalAlign=middle;spacingLeft=4;spacingRight=4;overflow=hidden;points=[[0,0.5],[1,0.5]];portConstraint=eastwest;rotatable=0;whiteSpace=wrap;html=1;" parent="iSpKXZJJslrt3K8X691c-1" vertex="1">
          <mxGeometry y="150" width="140" height="30" as="geometry" />
        </mxCell>
        <mxCell id="iSpKXZJJslrt3K8X691c-22" value="function" style="text;strokeColor=none;fillColor=none;align=left;verticalAlign=middle;spacingLeft=4;spacingRight=4;overflow=hidden;points=[[0,0.5],[1,0.5]];portConstraint=eastwest;rotatable=0;whiteSpace=wrap;html=1;" parent="iSpKXZJJslrt3K8X691c-1" vertex="1">
          <mxGeometry y="180" width="140" height="30" as="geometry" />
        </mxCell>
        <mxCell id="iSpKXZJJslrt3K8X691c-25" value="str" style="text;strokeColor=none;fillColor=none;align=left;verticalAlign=middle;spacingLeft=4;spacingRight=4;overflow=hidden;points=[[0,0.5],[1,0.5]];portConstraint=eastwest;rotatable=0;whiteSpace=wrap;html=1;" parent="iSpKXZJJslrt3K8X691c-1" vertex="1">
          <mxGeometry y="210" width="140" height="30" as="geometry" />
        </mxCell>
        <mxCell id="iSpKXZJJslrt3K8X691c-5" value="Concept" style="swimlane;fontStyle=0;childLayout=stackLayout;horizontal=1;startSize=30;horizontalStack=0;resizeParent=1;resizeParentMax=0;resizeLast=0;collapsible=1;marginBottom=0;whiteSpace=wrap;html=1;" parent="WIyWlLk6GJQsqaUBKTNV-1" vertex="1">
          <mxGeometry x="344" y="-1840" width="140" height="240" as="geometry" />
        </mxCell>
        <mxCell id="iSpKXZJJslrt3K8X691c-6" value="dynamic array" style="text;strokeColor=none;fillColor=none;align=left;verticalAlign=middle;spacingLeft=4;spacingRight=4;overflow=hidden;points=[[0,0.5],[1,0.5]];portConstraint=eastwest;rotatable=0;whiteSpace=wrap;html=1;" parent="iSpKXZJJslrt3K8X691c-5" vertex="1">
          <mxGeometry y="30" width="140" height="30" as="geometry" />
        </mxCell>
        <mxCell id="iSpKXZJJslrt3K8X691c-7" value="pointer or type" style="text;strokeColor=none;fillColor=none;align=left;verticalAlign=middle;spacingLeft=4;spacingRight=4;overflow=hidden;points=[[0,0.5],[1,0.5]];portConstraint=eastwest;rotatable=0;whiteSpace=wrap;html=1;" parent="iSpKXZJJslrt3K8X691c-5" vertex="1">
          <mxGeometry y="60" width="140" height="30" as="geometry" />
        </mxCell>
        <mxCell id="iSpKXZJJslrt3K8X691c-12" value="type of member super" style="text;strokeColor=none;fillColor=none;align=left;verticalAlign=middle;spacingLeft=4;spacingRight=4;overflow=hidden;points=[[0,0.5],[1,0.5]];portConstraint=eastwest;rotatable=0;whiteSpace=wrap;html=1;" parent="iSpKXZJJslrt3K8X691c-5" vertex="1">
          <mxGeometry y="90" width="140" height="30" as="geometry" />
        </mxCell>
        <mxCell id="iSpKXZJJslrt3K8X691c-16" value="floating point type" style="text;strokeColor=none;fillColor=none;align=left;verticalAlign=middle;spacingLeft=4;spacingRight=4;overflow=hidden;points=[[0,0.5],[1,0.5]];portConstraint=eastwest;rotatable=0;whiteSpace=wrap;html=1;" parent="iSpKXZJJslrt3K8X691c-5" vertex="1">
          <mxGeometry y="120" width="140" height="30" as="geometry" />
        </mxCell>
        <mxCell id="iSpKXZJJslrt3K8X691c-18" value="list position" style="text;strokeColor=none;fillColor=none;align=left;verticalAlign=middle;spacingLeft=4;spacingRight=4;overflow=hidden;points=[[0,0.5],[1,0.5]];portConstraint=eastwest;rotatable=0;whiteSpace=wrap;html=1;" parent="iSpKXZJJslrt3K8X691c-5" vertex="1">
          <mxGeometry y="150" width="140" height="30" as="geometry" />
        </mxCell>
        <mxCell id="iSpKXZJJslrt3K8X691c-23" value="callable" style="text;strokeColor=none;fillColor=none;align=left;verticalAlign=middle;spacingLeft=4;spacingRight=4;overflow=hidden;points=[[0,0.5],[1,0.5]];portConstraint=eastwest;rotatable=0;whiteSpace=wrap;html=1;" parent="iSpKXZJJslrt3K8X691c-5" vertex="1">
          <mxGeometry y="180" width="140" height="30" as="geometry" />
        </mxCell>
        <mxCell id="iSpKXZJJslrt3K8X691c-26" value="string of chars" style="text;strokeColor=none;fillColor=none;align=left;verticalAlign=middle;spacingLeft=4;spacingRight=4;overflow=hidden;points=[[0,0.5],[1,0.5]];portConstraint=eastwest;rotatable=0;whiteSpace=wrap;html=1;" parent="iSpKXZJJslrt3K8X691c-5" vertex="1">
          <mxGeometry y="210" width="140" height="30" as="geometry" />
        </mxCell>
        <mxCell id="iSpKXZJJslrt3K8X691c-9" style="edgeStyle=orthogonalEdgeStyle;rounded=0;orthogonalLoop=1;jettySize=auto;html=1;entryX=0;entryY=0.5;entryDx=0;entryDy=0;" parent="WIyWlLk6GJQsqaUBKTNV-1" source="iSpKXZJJslrt3K8X691c-2" target="iSpKXZJJslrt3K8X691c-6" edge="1">
          <mxGeometry relative="1" as="geometry" />
        </mxCell>
        <mxCell id="iSpKXZJJslrt3K8X691c-10" style="edgeStyle=orthogonalEdgeStyle;rounded=0;orthogonalLoop=1;jettySize=auto;html=1;" parent="WIyWlLk6GJQsqaUBKTNV-1" source="iSpKXZJJslrt3K8X691c-3" target="iSpKXZJJslrt3K8X691c-7" edge="1">
          <mxGeometry relative="1" as="geometry" />
        </mxCell>
        <mxCell id="iSpKXZJJslrt3K8X691c-13" style="edgeStyle=orthogonalEdgeStyle;rounded=0;orthogonalLoop=1;jettySize=auto;html=1;entryX=0;entryY=0.5;entryDx=0;entryDy=0;" parent="WIyWlLk6GJQsqaUBKTNV-1" source="iSpKXZJJslrt3K8X691c-11" target="iSpKXZJJslrt3K8X691c-12" edge="1">
          <mxGeometry relative="1" as="geometry" />
        </mxCell>
        <mxCell id="iSpKXZJJslrt3K8X691c-17" style="edgeStyle=orthogonalEdgeStyle;rounded=0;orthogonalLoop=1;jettySize=auto;html=1;" parent="WIyWlLk6GJQsqaUBKTNV-1" source="iSpKXZJJslrt3K8X691c-15" target="iSpKXZJJslrt3K8X691c-16" edge="1">
          <mxGeometry relative="1" as="geometry" />
        </mxCell>
        <mxCell id="iSpKXZJJslrt3K8X691c-20" style="edgeStyle=orthogonalEdgeStyle;rounded=0;orthogonalLoop=1;jettySize=auto;html=1;" parent="WIyWlLk6GJQsqaUBKTNV-1" source="iSpKXZJJslrt3K8X691c-19" target="iSpKXZJJslrt3K8X691c-18" edge="1">
          <mxGeometry relative="1" as="geometry" />
        </mxCell>
        <mxCell id="iSpKXZJJslrt3K8X691c-21" style="edgeStyle=orthogonalEdgeStyle;rounded=0;orthogonalLoop=1;jettySize=auto;html=1;dashed=1;" parent="WIyWlLk6GJQsqaUBKTNV-1" source="5rygWhRONN88SNYjt8ui-63" target="5rygWhRONN88SNYjt8ui-72" edge="1">
          <mxGeometry relative="1" as="geometry">
            <Array as="points">
              <mxPoint x="130" y="-547" />
              <mxPoint x="130" y="-650" />
              <mxPoint x="300" y="-650" />
            </Array>
          </mxGeometry>
        </mxCell>
        <mxCell id="iSpKXZJJslrt3K8X691c-24" style="edgeStyle=orthogonalEdgeStyle;rounded=0;orthogonalLoop=1;jettySize=auto;html=1;" parent="WIyWlLk6GJQsqaUBKTNV-1" source="iSpKXZJJslrt3K8X691c-22" target="iSpKXZJJslrt3K8X691c-23" edge="1">
          <mxGeometry relative="1" as="geometry" />
        </mxCell>
        <mxCell id="iSpKXZJJslrt3K8X691c-27" style="edgeStyle=orthogonalEdgeStyle;rounded=0;orthogonalLoop=1;jettySize=auto;html=1;entryX=0;entryY=0.5;entryDx=0;entryDy=0;" parent="WIyWlLk6GJQsqaUBKTNV-1" source="iSpKXZJJslrt3K8X691c-25" target="iSpKXZJJslrt3K8X691c-26" edge="1">
          <mxGeometry relative="1" as="geometry" />
        </mxCell>
        <mxCell id="iSpKXZJJslrt3K8X691c-29" style="edgeStyle=orthogonalEdgeStyle;rounded=0;orthogonalLoop=1;jettySize=auto;html=1;entryX=1;entryY=0.5;entryDx=0;entryDy=0;endArrow=none;endFill=0;endSize=6;startArrow=diamondThin;startFill=1;startSize=9;" parent="WIyWlLk6GJQsqaUBKTNV-1" source="57HEkyMDVmlf4uenoFg5-29" target="muvpBoI5yuBOFcIrjpcm-34" edge="1">
          <mxGeometry relative="1" as="geometry">
            <Array as="points">
              <mxPoint x="1110" y="-547" />
              <mxPoint x="1110" y="-780" />
              <mxPoint x="880" y="-780" />
              <mxPoint x="880" y="-1280" />
            </Array>
          </mxGeometry>
        </mxCell>
        <mxCell id="iSpKXZJJslrt3K8X691c-30" style="edgeStyle=orthogonalEdgeStyle;rounded=0;orthogonalLoop=1;jettySize=auto;html=1;entryX=1;entryY=0.25;entryDx=0;entryDy=0;endArrow=none;endFill=0;endSize=6;startArrow=diamondThin;startFill=1;startSize=9;" parent="WIyWlLk6GJQsqaUBKTNV-1" source="57HEkyMDVmlf4uenoFg5-30" target="57HEkyMDVmlf4uenoFg5-1" edge="1">
          <mxGeometry relative="1" as="geometry">
            <Array as="points">
              <mxPoint x="1080" y="-521" />
              <mxPoint x="1080" y="-750" />
              <mxPoint x="850" y="-750" />
              <mxPoint x="850" y="-1127" />
            </Array>
          </mxGeometry>
        </mxCell>
        <mxCell id="iSpKXZJJslrt3K8X691c-32" style="edgeStyle=orthogonalEdgeStyle;rounded=0;orthogonalLoop=1;jettySize=auto;html=1;entryX=1;entryY=0.25;entryDx=0;entryDy=0;endArrow=none;endFill=0;endSize=6;startArrow=diamondThin;startFill=1;startSize=9;" parent="WIyWlLk6GJQsqaUBKTNV-1" source="iSpKXZJJslrt3K8X691c-31" target="57HEkyMDVmlf4uenoFg5-9" edge="1">
          <mxGeometry relative="1" as="geometry">
            <Array as="points">
              <mxPoint x="1070" y="-495" />
              <mxPoint x="1070" y="-740" />
              <mxPoint x="840" y="-740" />
              <mxPoint x="840" y="-1054" />
            </Array>
          </mxGeometry>
        </mxCell>
        <mxCell id="iSpKXZJJslrt3K8X691c-37" value="" style="group" parent="WIyWlLk6GJQsqaUBKTNV-1" vertex="1" connectable="0">
          <mxGeometry x="160" y="-650" width="790" as="geometry" />
        </mxCell>
        <mxCell id="muvpBoI5yuBOFcIrjpcm-56" style="edgeStyle=orthogonalEdgeStyle;rounded=0;orthogonalLoop=1;jettySize=auto;html=1;endArrow=blockThin;endFill=1;strokeWidth=1;endSize=6;targetPerimeterSpacing=0;entryX=0.5;entryY=1;entryDx=0;entryDy=0;dashed=1;" parent="iSpKXZJJslrt3K8X691c-37" source="5rygWhRONN88SNYjt8ui-62" target="5rygWhRONN88SNYjt8ui-72" edge="1">
          <mxGeometry relative="1" as="geometry">
            <Array as="points">
              <mxPoint x="-120" />
              <mxPoint x="140" />
            </Array>
            <mxPoint x="130" as="targetPoint" />
          </mxGeometry>
        </mxCell>
        <mxCell id="iSpKXZJJslrt3K8X691c-36" style="edgeStyle=orthogonalEdgeStyle;rounded=0;orthogonalLoop=1;jettySize=auto;html=1;endArrow=none;endFill=0;dashed=1;" parent="iSpKXZJJslrt3K8X691c-37" source="5rygWhRONN88SNYjt8ui-113" edge="1">
          <mxGeometry relative="1" as="geometry">
            <mxPoint x="175" as="targetPoint" />
            <Array as="points">
              <mxPoint x="175" y="26" />
              <mxPoint x="176" y="26" />
              <mxPoint x="176" />
            </Array>
          </mxGeometry>
        </mxCell>
        <mxCell id="iSpKXZJJslrt3K8X691c-35" style="edgeStyle=orthogonalEdgeStyle;rounded=0;orthogonalLoop=1;jettySize=auto;html=1;endArrow=none;endFill=0;dashed=1;" parent="iSpKXZJJslrt3K8X691c-37" source="5rygWhRONN88SNYjt8ui-151" edge="1">
          <mxGeometry relative="1" as="geometry">
            <mxPoint x="370" as="targetPoint" />
          </mxGeometry>
        </mxCell>
        <mxCell id="iSpKXZJJslrt3K8X691c-34" style="edgeStyle=orthogonalEdgeStyle;rounded=0;orthogonalLoop=1;jettySize=auto;html=1;endArrow=none;endFill=0;dashed=1;" parent="iSpKXZJJslrt3K8X691c-37" source="5rygWhRONN88SNYjt8ui-174" edge="1">
          <mxGeometry relative="1" as="geometry">
            <mxPoint x="600" as="targetPoint" />
          </mxGeometry>
        </mxCell>
        <mxCell id="muvpBoI5yuBOFcIrjpcm-53" style="edgeStyle=orthogonalEdgeStyle;rounded=0;orthogonalLoop=1;jettySize=auto;html=1;endArrow=none;endFill=0;dashed=1;" parent="iSpKXZJJslrt3K8X691c-37" source="b3c_SwX3CGdLqoRGaVpB-2" edge="1">
          <mxGeometry relative="1" as="geometry">
            <Array as="points">
              <mxPoint x="790" />
            </Array>
            <mxPoint x="140" as="targetPoint" />
          </mxGeometry>
        </mxCell>
        <mxCell id="iSpKXZJJslrt3K8X691c-42" style="edgeStyle=orthogonalEdgeStyle;rounded=0;orthogonalLoop=1;jettySize=auto;html=1;entryX=0.991;entryY=0.082;entryDx=0;entryDy=0;entryPerimeter=0;endArrow=none;endFill=0;strokeWidth=1;endSize=6;startArrow=diamondThin;startFill=0;startSize=9;" parent="WIyWlLk6GJQsqaUBKTNV-1" source="muvpBoI5yuBOFcIrjpcm-26" target="5rygWhRONN88SNYjt8ui-174" edge="1">
          <mxGeometry relative="1" as="geometry">
            <Array as="points">
              <mxPoint x="868" y="-470" />
              <mxPoint x="868" y="-573" />
            </Array>
          </mxGeometry>
        </mxCell>
        <mxCell id="iSpKXZJJslrt3K8X691c-45" style="edgeStyle=orthogonalEdgeStyle;rounded=0;orthogonalLoop=1;jettySize=auto;html=1;entryX=0;entryY=0.087;entryDx=0;entryDy=0;entryPerimeter=0;endArrow=none;endFill=0;startArrow=diamondThin;startFill=1;startSize=9;" parent="WIyWlLk6GJQsqaUBKTNV-1" source="muvpBoI5yuBOFcIrjpcm-10" target="muvpBoI5yuBOFcIrjpcm-11" edge="1">
          <mxGeometry relative="1" as="geometry" />
        </mxCell>
        <mxCell id="X6WMRJas0Hvn011ylAVO-17" style="edgeStyle=orthogonalEdgeStyle;rounded=0;orthogonalLoop=1;jettySize=auto;html=1;entryX=1;entryY=0.25;entryDx=0;entryDy=0;endArrow=none;endFill=0;" parent="WIyWlLk6GJQsqaUBKTNV-1" source="X6WMRJas0Hvn011ylAVO-10" target="muvpBoI5yuBOFcIrjpcm-38" edge="1">
          <mxGeometry relative="1" as="geometry">
            <Array as="points">
              <mxPoint x="660" y="-1471" />
              <mxPoint x="660" y="-1241" />
            </Array>
          </mxGeometry>
        </mxCell>
        <mxCell id="X6WMRJas0Hvn011ylAVO-9" value="Player" style="swimlane;fontStyle=1;align=center;verticalAlign=top;childLayout=stackLayout;horizontal=1;startSize=26;horizontalStack=0;resizeParent=1;resizeParentMax=0;resizeLast=0;collapsible=1;marginBottom=0;whiteSpace=wrap;html=1;" parent="WIyWlLk6GJQsqaUBKTNV-1" vertex="1">
          <mxGeometry x="260" y="-1510" width="182" height="190" as="geometry" />
        </mxCell>
        <mxCell id="X6WMRJas0Hvn011ylAVO-10" value="#m_health : Health" style="text;strokeColor=none;fillColor=none;align=left;verticalAlign=top;spacingLeft=4;spacingRight=4;overflow=hidden;rotatable=0;points=[[0,0.5],[1,0.5]];portConstraint=eastwest;whiteSpace=wrap;html=1;" parent="X6WMRJas0Hvn011ylAVO-9" vertex="1">
          <mxGeometry y="26" width="182" height="26" as="geometry" />
        </mxCell>
        <mxCell id="X6WMRJas0Hvn011ylAVO-19" value="#m_money : Money" style="text;strokeColor=none;fillColor=none;align=left;verticalAlign=top;spacingLeft=4;spacingRight=4;overflow=hidden;rotatable=0;points=[[0,0.5],[1,0.5]];portConstraint=eastwest;whiteSpace=wrap;html=1;" parent="X6WMRJas0Hvn011ylAVO-9" vertex="1">
          <mxGeometry y="52" width="182" height="26" as="geometry" />
        </mxCell>
        <mxCell id="t3JStGqKMk5G3Lj9DYAn-8" value="#m_playerHUD : PlayerHUD" style="text;strokeColor=none;fillColor=none;align=left;verticalAlign=top;spacingLeft=4;spacingRight=4;overflow=hidden;rotatable=0;points=[[0,0.5],[1,0.5]];portConstraint=eastwest;whiteSpace=wrap;html=1;" parent="X6WMRJas0Hvn011ylAVO-9" vertex="1">
          <mxGeometry y="78" width="182" height="26" as="geometry" />
        </mxCell>
        <mxCell id="X6WMRJas0Hvn011ylAVO-11" value="" style="line;strokeWidth=1;fillColor=none;align=left;verticalAlign=middle;spacingTop=-1;spacingLeft=3;spacingRight=3;rotatable=0;labelPosition=right;points=[];portConstraint=eastwest;strokeColor=inherit;" parent="X6WMRJas0Hvn011ylAVO-9" vertex="1">
          <mxGeometry y="104" width="182" height="8" as="geometry" />
        </mxCell>
        <mxCell id="X6WMRJas0Hvn011ylAVO-12" value="+hit(int) : void" style="text;strokeColor=none;fillColor=none;align=left;verticalAlign=top;spacingLeft=4;spacingRight=4;overflow=hidden;rotatable=0;points=[[0,0.5],[1,0.5]];portConstraint=eastwest;whiteSpace=wrap;html=1;" parent="X6WMRJas0Hvn011ylAVO-9" vertex="1">
          <mxGeometry y="112" width="182" height="26" as="geometry" />
        </mxCell>
        <mxCell id="X6WMRJas0Hvn011ylAVO-22" value="+topUp(int) : void" style="text;strokeColor=none;fillColor=none;align=left;verticalAlign=top;spacingLeft=4;spacingRight=4;overflow=hidden;rotatable=0;points=[[0,0.5],[1,0.5]];portConstraint=eastwest;whiteSpace=wrap;html=1;" parent="X6WMRJas0Hvn011ylAVO-9" vertex="1">
          <mxGeometry y="138" width="182" height="26" as="geometry" />
        </mxCell>
        <mxCell id="X6WMRJas0Hvn011ylAVO-24" value="+requestPayment(int) : bool" style="text;strokeColor=none;fillColor=none;align=left;verticalAlign=top;spacingLeft=4;spacingRight=4;overflow=hidden;rotatable=0;points=[[0,0.5],[1,0.5]];portConstraint=eastwest;whiteSpace=wrap;html=1;" parent="X6WMRJas0Hvn011ylAVO-9" vertex="1">
          <mxGeometry y="164" width="182" height="26" as="geometry" />
        </mxCell>
        <mxCell id="X6WMRJas0Hvn011ylAVO-16" value="&amp;nbsp;" style="text;whiteSpace=wrap;html=1;" parent="WIyWlLk6GJQsqaUBKTNV-1" vertex="1">
          <mxGeometry x="1090" y="-850" width="40" height="40" as="geometry" />
        </mxCell>
        <mxCell id="X6WMRJas0Hvn011ylAVO-25" value="Game" style="swimlane;fontStyle=1;align=center;verticalAlign=top;childLayout=stackLayout;horizontal=1;startSize=26;horizontalStack=0;resizeParent=1;resizeParentMax=0;resizeLast=0;collapsible=1;marginBottom=0;whiteSpace=wrap;html=1;" parent="WIyWlLk6GJQsqaUBKTNV-1" vertex="1">
          <mxGeometry x="100" y="-1290" width="230" height="190" as="geometry" />
        </mxCell>
        <mxCell id="X6WMRJas0Hvn011ylAVO-26" value="#m_player : Player" style="text;strokeColor=none;fillColor=none;align=left;verticalAlign=top;spacingLeft=4;spacingRight=4;overflow=hidden;rotatable=0;points=[[0,0.5],[1,0.5]];portConstraint=eastwest;whiteSpace=wrap;html=1;" parent="X6WMRJas0Hvn011ylAVO-25" vertex="1">
          <mxGeometry y="26" width="230" height="26" as="geometry" />
        </mxCell>
        <mxCell id="X6WMRJas0Hvn011ylAVO-30" value="#m_camera: CameraObject" style="text;strokeColor=none;fillColor=none;align=left;verticalAlign=top;spacingLeft=4;spacingRight=4;overflow=hidden;rotatable=0;points=[[0,0.5],[1,0.5]];portConstraint=eastwest;whiteSpace=wrap;html=1;" parent="X6WMRJas0Hvn011ylAVO-25" vertex="1">
          <mxGeometry y="52" width="230" height="26" as="geometry" />
        </mxCell>
        <mxCell id="X6WMRJas0Hvn011ylAVO-29" value="#m_sceneManager: SceneManager" style="text;strokeColor=none;fillColor=none;align=left;verticalAlign=top;spacingLeft=4;spacingRight=4;overflow=hidden;rotatable=0;points=[[0,0.5],[1,0.5]];portConstraint=eastwest;whiteSpace=wrap;html=1;" parent="X6WMRJas0Hvn011ylAVO-25" vertex="1">
          <mxGeometry y="78" width="230" height="26" as="geometry" />
        </mxCell>
        <mxCell id="X6WMRJas0Hvn011ylAVO-27" value="" style="line;strokeWidth=1;fillColor=none;align=left;verticalAlign=middle;spacingTop=-1;spacingLeft=3;spacingRight=3;rotatable=0;labelPosition=right;points=[];portConstraint=eastwest;strokeColor=inherit;" parent="X6WMRJas0Hvn011ylAVO-25" vertex="1">
          <mxGeometry y="104" width="230" height="8" as="geometry" />
        </mxCell>
        <mxCell id="X6WMRJas0Hvn011ylAVO-33" value="+ GetSceneManager() : SceneManager " style="text;strokeColor=none;fillColor=none;align=left;verticalAlign=top;spacingLeft=4;spacingRight=4;overflow=hidden;rotatable=0;points=[[0,0.5],[1,0.5]];portConstraint=eastwest;whiteSpace=wrap;html=1;" parent="X6WMRJas0Hvn011ylAVO-25" vertex="1">
          <mxGeometry y="112" width="230" height="26" as="geometry" />
        </mxCell>
        <mxCell id="X6WMRJas0Hvn011ylAVO-28" value="+ GetPlayer() :&amp;nbsp;Player " style="text;strokeColor=none;fillColor=none;align=left;verticalAlign=top;spacingLeft=4;spacingRight=4;overflow=hidden;rotatable=0;points=[[0,0.5],[1,0.5]];portConstraint=eastwest;whiteSpace=wrap;html=1;" parent="X6WMRJas0Hvn011ylAVO-25" vertex="1">
          <mxGeometry y="138" width="230" height="26" as="geometry" />
        </mxCell>
        <mxCell id="X6WMRJas0Hvn011ylAVO-34" value="+ GetCamera() :&amp;nbsp;CameraObject " style="text;strokeColor=none;fillColor=none;align=left;verticalAlign=top;spacingLeft=4;spacingRight=4;overflow=hidden;rotatable=0;points=[[0,0.5],[1,0.5]];portConstraint=eastwest;whiteSpace=wrap;html=1;" parent="X6WMRJas0Hvn011ylAVO-25" vertex="1">
          <mxGeometry y="164" width="230" height="26" as="geometry" />
        </mxCell>
        <mxCell id="X6WMRJas0Hvn011ylAVO-31" style="edgeStyle=orthogonalEdgeStyle;rounded=0;orthogonalLoop=1;jettySize=auto;html=1;" parent="WIyWlLk6GJQsqaUBKTNV-1" source="X6WMRJas0Hvn011ylAVO-29" target="zkfFHV4jXpPFQw0GAbJ--0" edge="1">
          <mxGeometry relative="1" as="geometry">
            <mxPoint x="22" y="-1190" as="sourcePoint" />
            <Array as="points">
              <mxPoint x="22" y="-1190" />
            </Array>
          </mxGeometry>
        </mxCell>
        <mxCell id="UR-E5JvUkwHcXYG5B1gH-18" style="edgeStyle=orthogonalEdgeStyle;rounded=0;orthogonalLoop=1;jettySize=auto;html=1;endArrow=none;endFill=0;" parent="WIyWlLk6GJQsqaUBKTNV-1" source="X6WMRJas0Hvn011ylAVO-19" target="X6WMRJas0Hvn011ylAVO-20" edge="1">
          <mxGeometry relative="1" as="geometry">
            <Array as="points">
              <mxPoint x="620" y="-1445" />
              <mxPoint x="620" y="-987" />
            </Array>
          </mxGeometry>
        </mxCell>
        <mxCell id="UR-E5JvUkwHcXYG5B1gH-19" value="CameraObject" style="swimlane;fontStyle=1;align=center;verticalAlign=top;childLayout=stackLayout;horizontal=1;startSize=26;horizontalStack=0;resizeParent=1;resizeParentMax=0;resizeLast=0;collapsible=1;marginBottom=0;whiteSpace=wrap;html=1;" parent="WIyWlLk6GJQsqaUBKTNV-1" vertex="1">
          <mxGeometry x="-180" y="-1496" width="210" height="242" as="geometry" />
        </mxCell>
        <mxCell id="UR-E5JvUkwHcXYG5B1gH-20" value="#m_camera: MyCamera" style="text;strokeColor=none;fillColor=none;align=left;verticalAlign=top;spacingLeft=4;spacingRight=4;overflow=hidden;rotatable=0;points=[[0,0.5],[1,0.5]];portConstraint=eastwest;whiteSpace=wrap;html=1;" parent="UR-E5JvUkwHcXYG5B1gH-19" vertex="1">
          <mxGeometry y="26" width="210" height="26" as="geometry" />
        </mxCell>
        <mxCell id="UR-E5JvUkwHcXYG5B1gH-21" value="# restriction: ??" style="text;strokeColor=none;fillColor=none;align=left;verticalAlign=top;spacingLeft=4;spacingRight=4;overflow=hidden;rotatable=0;points=[[0,0.5],[1,0.5]];portConstraint=eastwest;whiteSpace=wrap;html=1;" parent="UR-E5JvUkwHcXYG5B1gH-19" vertex="1">
          <mxGeometry y="52" width="210" height="26" as="geometry" />
        </mxCell>
        <mxCell id="UR-E5JvUkwHcXYG5B1gH-32" value="#m_scale: double &lt;span style=&quot;white-space: pre;&quot;&gt;&#x9;&lt;/span&gt;" style="text;strokeColor=none;fillColor=none;align=left;verticalAlign=top;spacingLeft=4;spacingRight=4;overflow=hidden;rotatable=0;points=[[0,0.5],[1,0.5]];portConstraint=eastwest;whiteSpace=wrap;html=1;" parent="UR-E5JvUkwHcXYG5B1gH-19" vertex="1">
          <mxGeometry y="78" width="210" height="26" as="geometry" />
        </mxCell>
        <mxCell id="UR-E5JvUkwHcXYG5B1gH-34" value="#m_movementSpeed: Speed " style="text;strokeColor=none;fillColor=none;align=left;verticalAlign=top;spacingLeft=4;spacingRight=4;overflow=hidden;rotatable=0;points=[[0,0.5],[1,0.5]];portConstraint=eastwest;whiteSpace=wrap;html=1;" parent="UR-E5JvUkwHcXYG5B1gH-19" vertex="1">
          <mxGeometry y="104" width="210" height="26" as="geometry" />
        </mxCell>
        <mxCell id="UR-E5JvUkwHcXYG5B1gH-35" value="#m_scalingSpeed: Speed " style="text;strokeColor=none;fillColor=none;align=left;verticalAlign=top;spacingLeft=4;spacingRight=4;overflow=hidden;rotatable=0;points=[[0,0.5],[1,0.5]];portConstraint=eastwest;whiteSpace=wrap;html=1;" parent="UR-E5JvUkwHcXYG5B1gH-19" vertex="1">
          <mxGeometry y="130" width="210" height="26" as="geometry" />
        </mxCell>
        <mxCell id="UR-E5JvUkwHcXYG5B1gH-22" value="" style="line;strokeWidth=1;fillColor=none;align=left;verticalAlign=middle;spacingTop=-1;spacingLeft=3;spacingRight=3;rotatable=0;labelPosition=right;points=[];portConstraint=eastwest;strokeColor=inherit;" parent="UR-E5JvUkwHcXYG5B1gH-19" vertex="1">
          <mxGeometry y="156" width="210" height="8" as="geometry" />
        </mxCell>
        <mxCell id="UR-E5JvUkwHcXYG5B1gH-23" value="+update(double): void" style="text;strokeColor=none;fillColor=none;align=left;verticalAlign=top;spacingLeft=4;spacingRight=4;overflow=hidden;rotatable=0;points=[[0,0.5],[1,0.5]];portConstraint=eastwest;whiteSpace=wrap;html=1;" parent="UR-E5JvUkwHcXYG5B1gH-19" vertex="1">
          <mxGeometry y="164" width="210" height="26" as="geometry" />
        </mxCell>
        <mxCell id="UR-E5JvUkwHcXYG5B1gH-36" value="#_handleInput(double): void" style="text;strokeColor=none;fillColor=none;align=left;verticalAlign=top;spacingLeft=4;spacingRight=4;overflow=hidden;rotatable=0;points=[[0,0.5],[1,0.5]];portConstraint=eastwest;whiteSpace=wrap;html=1;" parent="UR-E5JvUkwHcXYG5B1gH-19" vertex="1">
          <mxGeometry y="190" width="210" height="26" as="geometry" />
        </mxCell>
        <mxCell id="UR-E5JvUkwHcXYG5B1gH-37" value="#_applyRestrictions(double): void" style="text;strokeColor=none;fillColor=none;align=left;verticalAlign=top;spacingLeft=4;spacingRight=4;overflow=hidden;rotatable=0;points=[[0,0.5],[1,0.5]];portConstraint=eastwest;whiteSpace=wrap;html=1;" parent="UR-E5JvUkwHcXYG5B1gH-19" vertex="1">
          <mxGeometry y="216" width="210" height="26" as="geometry" />
        </mxCell>
        <mxCell id="UR-E5JvUkwHcXYG5B1gH-26" style="edgeStyle=orthogonalEdgeStyle;rounded=0;orthogonalLoop=1;jettySize=auto;html=1;" parent="WIyWlLk6GJQsqaUBKTNV-1" source="X6WMRJas0Hvn011ylAVO-26" target="X6WMRJas0Hvn011ylAVO-9" edge="1">
          <mxGeometry relative="1" as="geometry" />
        </mxCell>
        <mxCell id="UR-E5JvUkwHcXYG5B1gH-27" style="edgeStyle=orthogonalEdgeStyle;rounded=0;orthogonalLoop=1;jettySize=auto;html=1;" parent="WIyWlLk6GJQsqaUBKTNV-1" source="X6WMRJas0Hvn011ylAVO-30" target="UR-E5JvUkwHcXYG5B1gH-19" edge="1">
          <mxGeometry relative="1" as="geometry">
            <Array as="points">
              <mxPoint x="80" y="-1225" />
            </Array>
          </mxGeometry>
        </mxCell>
        <mxCell id="t3JStGqKMk5G3Lj9DYAn-1" style="edgeStyle=orthogonalEdgeStyle;rounded=0;orthogonalLoop=1;jettySize=auto;html=1;" parent="WIyWlLk6GJQsqaUBKTNV-1" source="UR-E5JvUkwHcXYG5B1gH-20" target="t3JStGqKMk5G3Lj9DYAn-2" edge="1">
          <mxGeometry relative="1" as="geometry">
            <mxPoint x="-375" y="-1440" as="targetPoint" />
          </mxGeometry>
        </mxCell>
        <mxCell id="t3JStGqKMk5G3Lj9DYAn-2" value="MyCamera" style="swimlane;fontStyle=0;childLayout=stackLayout;horizontal=1;startSize=26;fillColor=none;horizontalStack=0;resizeParent=1;resizeParentMax=0;resizeLast=0;collapsible=1;marginBottom=0;whiteSpace=wrap;html=1;" parent="WIyWlLk6GJQsqaUBKTNV-1" vertex="1">
          <mxGeometry x="-450" y="-1427" width="140" height="78" as="geometry" />
        </mxCell>
        <mxCell id="t3JStGqKMk5G3Lj9DYAn-3" value="+ zoom: float" style="text;strokeColor=none;fillColor=none;align=left;verticalAlign=top;spacingLeft=4;spacingRight=4;overflow=hidden;rotatable=0;points=[[0,0.5],[1,0.5]];portConstraint=eastwest;whiteSpace=wrap;html=1;" parent="t3JStGqKMk5G3Lj9DYAn-2" vertex="1">
          <mxGeometry y="26" width="140" height="26" as="geometry" />
        </mxCell>
        <mxCell id="t3JStGqKMk5G3Lj9DYAn-4" value="+ position:Vector2D" style="text;strokeColor=none;fillColor=none;align=left;verticalAlign=top;spacingLeft=4;spacingRight=4;overflow=hidden;rotatable=0;points=[[0,0.5],[1,0.5]];portConstraint=eastwest;whiteSpace=wrap;html=1;" parent="t3JStGqKMk5G3Lj9DYAn-2" vertex="1">
          <mxGeometry y="52" width="140" height="26" as="geometry" />
        </mxCell>
        <mxCell id="Yk1TS9U53KZV7oq_ULZb-0" value="PlaceHolder" style="swimlane;fontStyle=0;align=center;verticalAlign=top;childLayout=stackLayout;horizontal=1;startSize=40;horizontalStack=0;resizeParent=1;resizeLast=0;collapsible=1;marginBottom=0;rounded=0;shadow=0;strokeWidth=1;" vertex="1" parent="WIyWlLk6GJQsqaUBKTNV-1">
          <mxGeometry x="151" y="-350" width="200" height="196" as="geometry">
            <mxRectangle x="220" y="70" width="160" height="26" as="alternateBounds" />
          </mxGeometry>
        </mxCell>
        <mxCell id="Yk1TS9U53KZV7oq_ULZb-13" value="-s_texture : Texture2D" style="text;align=left;verticalAlign=top;spacingLeft=4;spacingRight=4;overflow=hidden;rotatable=0;points=[[0,0.5],[1,0.5]];portConstraint=eastwest;" vertex="1" parent="Yk1TS9U53KZV7oq_ULZb-0">
          <mxGeometry y="40" width="200" height="26" as="geometry" />
        </mxCell>
        <mxCell id="Yk1TS9U53KZV7oq_ULZb-7" value="" style="line;html=1;strokeWidth=1;align=left;verticalAlign=middle;spacingTop=-1;spacingLeft=3;spacingRight=3;rotatable=0;labelPosition=right;points=[];portConstraint=eastwest;" vertex="1" parent="Yk1TS9U53KZV7oq_ULZb-0">
          <mxGeometry y="66" width="200" height="8" as="geometry" />
        </mxCell>
        <mxCell id="Yk1TS9U53KZV7oq_ULZb-12" value="This is specific button with predefined onClick&lt;br&gt;and it is kinda camera movable GUI&lt;br&gt;which is used to spawn tourel&lt;br&gt;at cost of players money&lt;br&gt;(Probably i need to write overriden methods)" style="shape=note;whiteSpace=wrap;html=1;backgroundOutline=1;darkOpacity=0.05;" vertex="1" parent="Yk1TS9U53KZV7oq_ULZb-0">
          <mxGeometry y="74" width="200" height="122" as="geometry" />
        </mxCell>
        <mxCell id="Yk1TS9U53KZV7oq_ULZb-9" style="edgeStyle=orthogonalEdgeStyle;rounded=0;orthogonalLoop=1;jettySize=auto;html=1;entryX=0.548;entryY=0.001;entryDx=0;entryDy=0;entryPerimeter=0;" edge="1" parent="WIyWlLk6GJQsqaUBKTNV-1" source="5rygWhRONN88SNYjt8ui-113" target="Yk1TS9U53KZV7oq_ULZb-0">
          <mxGeometry relative="1" as="geometry">
            <Array as="points">
              <mxPoint x="260" y="-360" />
              <mxPoint x="261" y="-360" />
            </Array>
          </mxGeometry>
        </mxCell>
        <mxCell id="Yk1TS9U53KZV7oq_ULZb-24" value="Spawner" style="swimlane;fontStyle=0;align=center;verticalAlign=top;childLayout=stackLayout;horizontal=1;startSize=40;horizontalStack=0;resizeParent=1;resizeLast=0;collapsible=1;marginBottom=0;rounded=0;shadow=0;strokeWidth=1;" vertex="1" parent="WIyWlLk6GJQsqaUBKTNV-1">
          <mxGeometry x="1310" y="-600" width="160" height="130" as="geometry">
            <mxRectangle x="220" y="70" width="160" height="26" as="alternateBounds" />
          </mxGeometry>
        </mxCell>
        <mxCell id="Yk1TS9U53KZV7oq_ULZb-25" value="-m_object : IGameObject" style="text;align=left;verticalAlign=top;spacingLeft=4;spacingRight=4;overflow=hidden;rotatable=0;points=[[0,0.5],[1,0.5]];portConstraint=eastwest;" vertex="1" parent="Yk1TS9U53KZV7oq_ULZb-24">
          <mxGeometry y="40" width="160" height="26" as="geometry" />
        </mxCell>
        <mxCell id="Yk1TS9U53KZV7oq_ULZb-26" value="-m_condition : bool(void)" style="text;align=left;verticalAlign=top;spacingLeft=4;spacingRight=4;overflow=hidden;rotatable=0;points=[[0,0.5],[1,0.5]];portConstraint=eastwest;" vertex="1" parent="Yk1TS9U53KZV7oq_ULZb-24">
          <mxGeometry y="66" width="160" height="26" as="geometry" />
        </mxCell>
        <mxCell id="Yk1TS9U53KZV7oq_ULZb-31" value="" style="line;html=1;strokeWidth=1;align=left;verticalAlign=middle;spacingTop=-1;spacingLeft=3;spacingRight=3;rotatable=0;labelPosition=right;points=[];portConstraint=eastwest;" vertex="1" parent="Yk1TS9U53KZV7oq_ULZb-24">
          <mxGeometry y="92" width="160" height="8" as="geometry" />
        </mxCell>
        <mxCell id="Yk1TS9U53KZV7oq_ULZb-32" value="+getPosition() : Vector2D" style="text;align=left;verticalAlign=top;spacingLeft=4;spacingRight=4;overflow=hidden;rotatable=0;points=[[0,0.5],[1,0.5]];portConstraint=eastwest;" vertex="1" parent="Yk1TS9U53KZV7oq_ULZb-24">
          <mxGeometry y="100" width="160" height="26" as="geometry" />
        </mxCell>
        <mxCell id="Yk1TS9U53KZV7oq_ULZb-34" value="" style="edgeStyle=orthogonalEdgeStyle;rounded=0;orthogonalLoop=1;jettySize=auto;html=1;entryX=1;entryY=0.5;entryDx=0;entryDy=0;endArrow=none;endFill=0;endSize=6;startArrow=diamondThin;startFill=1;startSize=9;" edge="1" parent="WIyWlLk6GJQsqaUBKTNV-1" source="muvpBoI5yuBOFcIrjpcm-27" target="Yk1TS9U53KZV7oq_ULZb-33">
          <mxGeometry relative="1" as="geometry">
            <Array as="points" />
            <mxPoint x="896" y="-520" as="sourcePoint" />
            <mxPoint x="612" y="-1280" as="targetPoint" />
          </mxGeometry>
        </mxCell>
      </root>
    </mxGraphModel>
  </diagram>
</mxfile>
